<svg version="1.2" xmlns="http://www.w3.org/2000/svg" viewBox="0 0 1006 1006" width="1006" height="1006">
	<title>biglogo-svg</title>
	<style>
		.s0 { fill: #fd5315 } 
		.s1 { fill: #7d7d7d } 
		.s2 { fill: #7d7d7d;stroke: #7d7d7d;stroke-linejoin: round;stroke-width: .6 } 
		.s3 { fill: #7d7d7d;stroke: #7d7d7d;stroke-linejoin: round;stroke-width: .4 } 
		.s4 { fill: #000000;stroke: #000000;stroke-linejoin: round;stroke-width: .4 } 
		.s5 { fill: #fd5315;stroke: #ff3e00;stroke-linejoin: round;stroke-width: .4 } 
		.s6 { fill: #007cff;stroke: #007cff;stroke-linecap: round;stroke-linejoin: round;stroke-width: .4 } 
		.s7 { fill: #007cff;stroke: #007cff;stroke-linejoin: round;stroke-width: .4 } 
		.s8 { fill: none;stroke: #000000;stroke-linejoin: round;stroke-width: .4 } 
		.s9 { fill: #007cff;stroke: #007cff;stroke-width: .6 } 
		.s10 { fill: none;stroke: #000000;stroke-width: .6 } 
		.s11 { fill: #fd5315;stroke: #fd5315;stroke-width: .6 } 
		.s12 { fill: #000000;stroke: #000000;stroke-width: .6 } 
		.s13 { fill: #fd5315;stroke: #ff3e00;stroke-width: .6 } 
		.s14 { fill: #7d7d7d;stroke: #7d7d7d;stroke-width: .6 } 
		.s15 { fill: none;stroke: #7d7d7d;stroke-width: .6 } 
		.s16 { fill: #007cff;stroke: #007cff;stroke-linecap: round;stroke-width: .6 } 
		.s17 { fill: #fd5315;stroke: #fd5315;stroke-linecap: round;stroke-width: .6 } 
	</style>
	<g id="Layer-5">
		<g id="Layer">
			<path id="Layer" class="s0" d="m709.8 2156.4c11-1.3 19.6 5.4 26.8 12.7 2.6 2.5 6.5 5.7 8 9.1 1.2 2.7 2.5 7.1 3 10 0.5 3-0.1 6 0.4 9.1 0.7 4.1 1.7 8.1 0.7 12.4-2.1 8.7-8.7 15.9-14.2 22.8-2.6 3.2-4.7 6.9-7.2 10.2-2.8 3.5-6.5 6.7-8.4 10.8-0.3 0.6-2.4 3.4-1.1 3.9 0.6 0.2 2.3-1.5 2.5-1.8 1.6-2.3 2.5-5.2 4.1-7.6 0.2-0.3 1.8-2.4 2.3-2.4 0.5 0.1 0.6 0.8 0.6 1.3-0.1 0.5-0.5 1.6-0.7 1.2-0.2-0.4 1.4-3.4 1.6-3.9"/>
			<path id="Layer" fill-rule="evenodd" class="s0" d="m716.4 2156.3c8.2 1.4 14.7 6.9 20.4 12.6 2.9 2.8 6.3 5.5 8 9.2 0.7 1.6 1.3 3.3 1.7 5 0.6 1.9 1.1 3.8 1.4 5.8 0.2 2.3-0.1 4.5 0.1 6.8 0.1 1.9 0.6 3.8 0.9 5.6 0.4 2.5 0.6 4.9 0.2 7.4-0.4 1.8-1 3.6-1.7 5.3-2.5 5.9-6.6 11-10.7 15.9-1.3 1.7-2.7 3.3-3.9 5.1-1.9 2.6-3.6 5.2-5.5 7.7-1.9 2.4-4.1 4.6-6 7 1.9-2.4 4-4.7 5.9-7.1 1.9-2.5 3.6-5.1 5.4-7.7 1-1.5 2.1-2.8 3.2-4.2 3.8-4.7 7.8-9.4 10.5-14.8 1.1-2.3 2.1-4.7 2.5-7.3 0.4-2.4 0.2-4.8-0.2-7.2-0.3-1.9-0.8-3.8-0.9-5.7-0.2-2.2 0.1-4.5-0.2-6.7-0.2-1.4-0.5-2.7-0.8-4-0.6-2.3-1.3-4.6-2.3-6.7-1.6-3.4-4.6-5.8-7.3-8.4-5.9-5.7-12.3-11.6-20.8-13.1-2.1-0.4-4.3-0.3-6.4-0.1-0.2 0-0.3-0.1-0.3-0.3-0.1-0.1 0.1-0.3 0.2-0.3 2.2-0.2 4.4-0.2 6.6 0.2zm4.3 94.3q-0.4 0.5-0.7 1c-0.4 0.6-0.8 1.4-1.1 2-0.4 0.7-0.8 1.2-1.1 1.9-0.1 0.2-0.2 0.4-0.3 0.7 0.1-0.1 0-0.2 0-0.3 0.5-1.2 1.3-2.3 1.9-3.4q0.5-1 1.2-1.9c0.2-0.4 0.5-0.6 0.7-0.9q-0.3 0.5-0.6 0.9zm-3.2 6.5c0.5 0.9 1.8-0.6 2.2-0.9 0.8-0.8 1.4-1.9 2-3-0.5 1-0.9 2-1.6 2.7q-0.2 0.2-0.4 0.4c-0.4 0.3-1.7 1.8-2.2 0.9-0.1-0.2 0-0.4 0-0.5 0 0.1 0 0.3 0 0.4zm0-0.4c0-0.2 0-0.3 0-0.5 0 0.1 0 0.3 0 0.5zm4.5-4.1c-0.1 0.2-0.2 0.4-0.3 0.6 0.1-0.2 0.2-0.4 0.3-0.6zm4.8-6.8c-0.1 0-0.2-0.1-0.4 0 0.1 0 0.1-0.1 0.2-0.1 0 0 0.1 0.1 0.2 0.1zm0 0q0 0 0 0 0 0 0 0zm0 0q0.1 0 0.2 0.1c-0.1-0.1-0.1-0.1-0.2-0.1zm0.2 0.1q0 0 0 0 0 0 0 0zm0.1 0.1c0.1 0.1 0 0.1 0 0.2 0-0.1 0-0.2-0.1-0.3 0.1 0.1 0.1 0 0.1 0.1zm0.1 0.3q0 0.1 0 0.1c0.1 0.2 0 0.4 0 0.6q0-0.3 0-0.6-0.1-0.1-0.1-0.2 0.1 0.1 0.1 0.1zm0 0.7q0 0 0 0 0 0 0 0zm0 0q0 0 0 0 0 0 0 0zm-0.1 0.5q0 0 0 0 0 0 0 0zm0 0c0.1-0.2 0-0.4 0.1-0.5-0.1 0.1 0 0.2 0 0.3q0 0.1-0.1 0.2zm-0.3 0.6q0.1-0.2 0.2-0.4 0 0.3-0.2 0.4zm0.2-0.4q0.1-0.1 0.1-0.2 0 0 0 0 0 0.1-0.1 0.2zm-0.3 0.5q0 0 0.1-0.1c0 0.2-0.1 0.2-0.1 0.1zm-0.1-0.2q0 0.1 0.1 0.2-0.1-0.1-0.1-0.2zm0-0.3q0 0 0.1 0c-0.1 0-0.1 0.2-0.1 0.3 0-0.1 0-0.2 0-0.3zm-0.3-1.8c0 0 0-0.1 0.1-0.1 0 0 0 0 0 0 0 0-0.1 0.1-0.1 0.1zm-0.7 0.6c0.1-0.1 0.2-0.2 0.3-0.3 0.1-0.1 0.2-0.2 0.4-0.3q-0.4 0.3-0.7 0.6zm0 0q0 0 0 0 0 0 0 0zm0 0q0 0 0 0.1 0-0.1 0-0.1zm0 0.1c-0.5 0.5-0.9 1.2-1.3 1.8 0-0.1 0.1-0.3 0.2-0.4 0.2-0.5 0.6-0.9 1-1.3q0-0.1 0.1-0.1zm-3.5 5.9c0.5-1.1 1-2.3 1.6-3.3 0.1-0.3 0.4-0.5 0.6-0.8q-1.2 2-2.2 4.1z"/>
		</g>
		<g id="Layer">
			<path id="Layer" class="s0" d="m712 2196.1c2-2.2 4.1-2.1 7-1.5 4.5 0.8 6.2 4.7 7.3 8.6 0.9 3 2.3 5.8 2.8 9 0.4 1.9-0.2 4 0 5.9 0.4 5.7 0.5 10.9-0.1 16.6-0.3 3.3 0.1 7.2-1 10.4-0.7 1.9-2.1 3.3-3.1 5-3 4.8-5.6 10.7-11.4 12.6-4.6 1.5-9.3 1.4-13.9 2.2-1.5 0.2-3.2-0.1-4.6 0.8-2 1.2-3.7 4-4.4 6.2-0.8 2.9-0.1 6.6-0.1 9.5-0.1 3.4-1 6.8-1 10.2-0.2 7-1.8 13.7-1.9 20.7-0.1 2.1 0.6 3.8 0.9 5.9 0.7 6 0.1 12.1 0.8 18.1 0.5 3.8 0 7.6-0.5 11.3-0.2 1.5 0.2 3.1 0 4.6-0.1 1.2-1.5 2.7-2.7 2.9-1.8 0.3-2.7-1.6-3.9-2.4-3-2.2-5.6-6.4-7.8-9.5-0.9-1.5-1.2-3.7-2.3-5-0.3-0.4-0.9-0.5-1.3-0.8-1.1-1.1-1.5-2.8-2.2-4.1-0.7-1.4-1.7-2.6-2.5-3.9-2.3-4.4-1.5-9.1-2.3-13.7-2.2-12.7 0.1-25.3 0.8-38 0.5-8 0-16-0.3-23.8"/>
			<path id="Layer" class="s0" d="m715.8 2194c-0.6 0-1.2 0.1-1.8 0.3-0.9 0.4-1.6 1-2.2 1.6-0.1 0.1-0.1 0.3 0 0.4 0.1 0.1 0.3 0.1 0.4 0 0.5-0.6 1.2-1.1 2-1.5 1.3-0.5 2.7-0.3 4.1-0.1 1.7 0.3 3.2 0.9 4.5 2.1 1.5 1.5 2.4 3.5 3 5.5 0.3 1.1 0.6 2.2 1 3.2 0.8 2.3 1.6 4.4 2.1 6.7 0.4 1.9-0.2 4-0.1 5.9 0.2 3.7 0.4 7.4 0.3 11.1 0 2.1-0.3 4.2-0.4 6.4-0.2 2-0.1 4.1-0.3 6.1-0.1 1.3-0.3 2.6-0.8 3.8-0.9 2-2.5 3.8-3.7 5.7-2.1 3.7-4.2 7.7-7.9 10.1-1.2 0.7-2.4 1.2-3.7 1.5-2.7 0.8-5.4 1-8 1.3-1.7 0.1-3.4 0.4-5.1 0.6-1.2 0.2-2.4 0.1-3.5 0.5-3 1-5.2 5.3-5.6 8.2-0.4 3.2 0.4 6.5 0.1 9.7-0.2 2.3-0.6 4.6-0.8 6.8-0.3 2.9-0.3 5.7-0.6 8.6-0.5 4.6-1.2 9.1-1.4 13.8-0.1 1.6 0.5 3.3 0.8 4.9 0.2 1.3 0.3 2.7 0.4 4 0.4 5 0.2 10.1 0.6 15.1 0.2 2.5 0.2 5 0 7.5-0.2 1.5-0.5 3.1-0.6 4.6 0 2.2 0.8 4.1-1 5.8-0.4 0.3-0.8 0.6-1.2 0.7-1.5 0.5-2.6-0.8-3.5-1.8-0.4-0.4-0.9-0.7-1.3-1-2.2-1.8-3.8-4.2-5.4-6.5-0.7-0.9-1.4-1.9-1.9-2.8-0.8-1.5-1.1-3.2-2.1-4.6-0.3-0.4-0.8-0.5-1.1-0.7-0.3-0.2-0.5-0.5-0.7-0.7-0.8-1.1-1.1-2.4-1.7-3.6-1.1-1.9-2.5-3.4-3.3-5.5-1.3-3.5-0.9-7.2-1.4-10.9-0.2-1.4-0.5-2.9-0.6-4.3-0.3-2.6-0.5-5.3-0.5-7.9-0.1-8 1-15.8 1.5-23.8 0.7-8.9 0.2-17.9-0.1-26.9 0.3 9 0.7 18 0.1 26.9-0.6 8-1.6 15.8-1.6 23.8 0 2.6 0.2 5.3 0.5 7.9 0.2 1.5 0.4 2.9 0.6 4.3 0.5 3.7 0.2 7.5 1.4 11 0.8 2 2.2 3.6 3.2 5.5 0.6 1.1 1 2.4 1.8 3.5 0.2 0.3 0.4 0.6 0.7 0.8 0.3 0.2 0.8 0.3 1.1 0.7 0.9 1.4 1.2 3.1 2 4.5 0.8 1.3 1.7 2.6 2.6 3.8 1.6 2.3 3.3 4.4 5.5 6.2 1.2 1 2.4 2.9 4.2 2.3 0.5-0.1 0.9-0.4 1.3-0.8 1.9-1.7 1.1-3.7 1.1-5.9 0.1-0.9 0.3-1.8 0.4-2.6q0.2-1.9 0.3-3.8c0.2-2.4 0-4.8-0.2-7.2-0.4-5.1-0.1-10.1-0.5-15.1q-0.2-1.8-0.6-3.5c-0.3-1.3-0.6-2.6-0.5-3.9 0.2-4.7 0.9-9.2 1.4-13.8 0.3-2.8 0.4-5.7 0.6-8.6 0.2-2.2 0.7-4.5 0.9-6.7 0.2-3.3-0.5-6.5-0.1-9.8 0.4-2.7 2.5-6.9 5.3-7.9 1.2-0.4 2.6-0.3 3.9-0.4 4.2-0.7 8.5-0.7 12.7-1.8 1.3-0.4 2.6-0.9 3.8-1.6 3.8-2.4 5.9-6.5 8.1-10.2 1.2-2 2.8-3.8 3.7-5.9 0.5-1.2 0.8-2.5 0.9-3.8 0.2-2.1 0.1-4.1 0.3-6.2 0.1-2.1 0.4-4.3 0.4-6.4 0.1-3.7-0.1-7.4-0.3-11.1-0.1-2 0.5-4 0.1-6-0.5-2.3-1.3-4.5-2.1-6.8-0.5-1.3-0.8-2.8-1.3-4.1-0.7-1.9-1.7-3.7-3.2-5.1-1.5-1.3-3.2-1.8-5.1-2-0.7-0.1-1.3-0.2-1.9-0.1z"/>
		</g>
		<g id="Layer">
			<path id="Layer" class="s0" d="m689.5 2113.3c5.9 1 10 4.9 14.9 8.1 1.7 1.1 3.6 1.8 5.3 2.8 2.3 1.5 4.3 3.5 6.4 5.1 1.1 0.9 3 2.7 2.6 4.3-0.4 1.7-2.5 2.5-3.7 3.6-3.6 3.1-8.6 3.9-13.2 4.4-7.4 0.9-14.6 2.7-22.1 3-1.9 0.1-3.8-0.1-5.7-0.1-2.5 0-5.1 0.8-7.6 0.7-4.3-0.2-7.8-0.9-12.3-0.4-5.2 0.5-10.5-0.2-15.5 1.5-0.8 0.3-1.4 0.3-2.1 0.9-2.4 2.4-1.6 9.1-2.6 12.4-0.8 2.8-0.8 5.7-1.5 8.5-0.8 2.9-2 5.7-2.9 8.6-1.1 3.9-1.8 8.9-2.4 12.9-0.3 2 0.2 4.1-0.2 6.1-0.3 1.3-0.7 0.8-0.4 2.3 0.2 1.4 0.6 1.9-0.3 3.2-1.5 2.2-3.3 3-5.3 4.4-4 2.9-7 4.4-11.5 6.4-4.9 2.2-9.2 5.4-13.9 8-2.2 1.3-4.8 2.5-7.3 3.2-0.1 0-2.1 0.8-2.3 0.1-0.2-0.5 1.1-1.8 1.3-2.1 1.7-2 3.4-4.4 5.4-6.1 2-1.7 4.2-3.3 6-5.1 2.3-2.2 4.1-5.1 6.3-7.5 2.6-2.7 6.9-4.4 8.5-8 1.5-3.5-1.3-10.4-1.5-14.4-0.1-2.7 0.3-5.7-0.3-8.3-0.3-1.4-1.3-3-1.2-4.4 0.1-0.9 0.6-1.8 0.6-2.7 0-0.9-0.4-1.7-0.6-2.6-0.1-1.2 0.3-2.5 0.3-3.7-0.1-1.2-0.4-2.3-0.5-3.5-0.3-3.1 0-6.3-0.1-9.5-0.2-3.1-1-6.4-1.8-9.5"/>
			<path id="Layer" class="s0" d="m689.5 2113c-0.1 0-0.3 0-0.3 0.2 0 0.1 0.1 0.3 0.2 0.3 5.9 1.2 9.9 4.9 14.8 8.1 1.8 1.1 3.7 1.8 5.4 2.9 2.3 1.4 4.2 3.3 6.3 5 1.1 0.9 2.9 2.4 2.5 4-0.3 1.4-1.9 2.2-2.9 2.9-1 0.8-1.9 1.6-3 2.2-1.6 0.8-3.2 1.4-4.9 1.8-2.6 0.7-5.2 0.9-7.7 1.2-5.5 0.7-10.9 2-16.5 2.5-1.5 0.2-3.1 0.3-4.6 0.3-1.8 0-3.6-0.2-5.4-0.1-1.9 0.1-3.8 0.6-5.7 0.7-2.5 0.1-4.9-0.3-7.4-0.5-2.5-0.1-5 0-7.5 0.2-4.3 0.3-8.7-0.1-13 1.1-1 0.2-2.6 0.5-3.4 1.3-1.1 1.1-1.5 2.8-1.7 4.2-0.4 2.8-0.2 5.6-0.9 8.3-0.7 2.8-0.9 5.7-1.6 8.5-0.7 2.9-1.9 5.7-2.8 8.6-1 3.5-1.6 7.2-2.2 10.8-0.1 1-0.3 2.1-0.4 3.1 0 1.4 0.2 2.7 0.1 4.1-0.1 0.4-0.1 1-0.3 1.5-0.1 0.2-0.3 0.5-0.3 0.8-0.2 1.2 0.6 2.4 0.1 3.6-1 2.3-3.6 3.6-5.6 4.9-2.4 1.7-4.8 3.2-7.3 4.5-3 1.5-6 2.7-8.9 4.4-4.6 2.7-8.9 5.9-13.9 7.8q-0.7 0.3-1.3 0.5-0.6 0.2-1.2 0.4c-0.6 0.2-1.4 0.6-2 0.4-0.7-0.2 0.4-1.5 0.6-1.7q0.1-0.1 0.3-0.3c1.5-1.8 2.9-3.8 4.6-5.4 2.4-2.4 5.2-4.2 7.5-6.6 2.3-2.4 4-5.3 6.5-7.6 2.4-2.2 5.6-3.6 7.3-6.5 1.1-1.9 1-3.9 0.7-6-0.4-3.1-1.5-6.1-1.7-9.2-0.2-2.4 0.1-4.8-0.1-7.1-0.1-0.7-0.2-1.4-0.4-2-0.4-1-0.9-2-1-3-0.2-1.2 0.5-2.2 0.5-3.4 0-1-0.5-1.9-0.6-2.9 0-1.2 0.4-2.3 0.3-3.4 0-1.4-0.5-2.9-0.6-4.3-0.2-2.9 0.1-5.8 0-8.7 0.1 2.9-0.2 5.8 0 8.7 0.1 1.4 0.5 2.9 0.6 4.3 0 1.1-0.4 2.2-0.3 3.4 0.1 1 0.6 1.9 0.6 2.9 0 1.2-0.7 2.2-0.6 3.4 0.1 1.1 0.7 2 1 3 0.2 0.6 0.3 1.3 0.4 2 0.3 2.4 0 4.7 0.1 7.1 0.2 3.3 1.4 6.5 1.8 9.9 0.2 1.8 0.1 3.6-0.8 5.2-1.7 2.9-4.9 4.4-7.3 6.5-2.5 2.3-4.2 5.2-6.5 7.6-2.3 2.4-5.1 4.2-7.5 6.5-1.8 1.8-3.3 3.9-4.9 5.8-0.3 0.3-1.4 1.6-0.6 2 0.6 0.2 1.5-0.3 2.1-0.5q0.6-0.1 1.3-0.3 0.6-0.2 1.2-0.5 0.6-0.2 1.3-0.5c4.5-1.9 8.5-4.9 12.8-7.3 2.8-1.7 5.8-2.9 8.8-4.4 2.6-1.3 5-2.8 7.3-4.5 2.1-1.4 4.7-2.6 5.8-5 0.5-1.2-0.3-2.4-0.1-3.7 0-0.2 0.2-0.5 0.3-0.8 0.1-0.4 0.2-1 0.3-1.5 0.1-1.4-0.1-2.7-0.1-4.1 0.1-1 0.3-2 0.4-3 0.6-3.6 1.1-7.3 2.2-10.8 0.9-2.9 2.1-5.7 2.8-8.6 0.8-2.8 0.9-5.7 1.6-8.5 0.7-2.9 0.5-6 1.1-8.9 0.2-1.2 0.5-2.6 1.4-3.4 0.6-0.6 1.4-0.7 2.1-0.9 1.2-0.4 2.5-0.7 3.7-0.9 2.6-0.3 5.2-0.3 7.8-0.4 1.7-0.1 3.3-0.2 5-0.3 2.7-0.2 5.4 0.1 8.1 0.3 1.4 0.1 2.9 0.3 4.4 0.2 1.9-0.1 3.8-0.6 5.7-0.7 1.8-0.1 3.6 0.2 5.4 0.2 1.5 0 3.1-0.2 4.7-0.3 4.3-0.5 8.5-1.3 12.8-2 2.6-0.4 5.2-0.6 7.8-1 3-0.4 6-1.1 8.6-2.6 1.1-0.6 2.1-1.4 3.1-2.2 1.4-0.9 3.5-2 3.2-4.1-0.4-1.9-2.4-3.2-3.8-4.4-1.8-1.5-3.4-3.1-5.4-4.3-2.1-1.3-4.4-2.2-6.5-3.7-4.4-3-8.5-6.2-13.8-7.3z"/>
		</g>
		<g id="Layer">
			<path id="Layer" class="s0" d="m656.8 2343.4c2 2.2 4 4.4 6 6.7 0.9 1 4.3 6.3 3.7 7.9-0.8 2.6-3.5 5.4-6.2 5.4-2.9 0.1-6.9-1.3-9.8-1.9-2.5-0.5-5-0.9-7.5-1.4-6.3-1.1-12.4-3.3-18.9-3.8-5.9-0.4-11.8-0.4-17.6 0-2.1 0.2-7.1 1.3-8.9 0.5-3.9-1.9-2.5-4.7-4.4-7.6-0.7-1.1-1.8-2-2.4-3.1-1.2-2.3-2.3-4.4-3.8-6.6"/>
			<path id="Layer" class="s0" d="m587 2339.5q1.4 2.2 2.6 4.4c0.5 0.9 1 1.9 1.6 2.8 0.7 1.1 1.8 2 2.4 3.2 1.3 2.6 0.6 5.1 3.5 6.7 0.4 0.2 0.9 0.2 1.3 0.3-0.4-0.1-0.8-0.2-1.2-0.4-2.9-1.6-2.2-4-3.5-6.6-0.6-1.3-1.7-2.1-2.5-3.3-0.6-0.8-1-1.8-1.5-2.8-0.9-1.4-1.8-2.8-2.7-4.3zm69.6 3.7c-0.1 0.1-0.1 0.3 0 0.4q3 3.3 6 6.6c1.3 1.5 2.4 3.6 3.2 5.4 0.3 0.6 0.6 1.4 0.5 2.2 0 0.4-0.3 1-0.5 1.4-0.7 1.3-1.8 2.4-3 3.2-0.8 0.5-1.6 0.8-2.5 0.8-3.2 0.1-6.6-1.2-9.7-1.9-3.6-0.7-7.2-1.2-10.7-2-5.3-1.1-10.4-2.6-15.8-3.1-3.4-0.3-6.9-0.3-10.3-0.3-2.5 0.1-5.1 0.1-7.6 0.4-2 0.2-3.9 0.7-5.9 0.7q-0.8 0.1-1.6 0c1.1 0.1 2.2 0.1 3.3 0 1.4-0.1 2.8-0.4 4.2-0.6 2.5-0.2 5.1-0.3 7.6-0.3 3.4 0 6.9 0 10.3 0.3 5.3 0.5 10.5 2.1 15.7 3.3 3.6 0.8 7.1 1.2 10.7 2 3.1 0.7 6.6 2 9.8 2 1.3-0.1 2.4-0.6 3.4-1.3 1.2-1 2.2-2.2 2.8-3.6 0.1-0.2 0.3-0.7 0.3-1 0.2-1.1-0.5-2.3-1-3.3-0.7-1.6-1.6-3.3-2.8-4.6q-3-3.4-6-6.7c-0.1-0.1-0.3-0.1-0.4 0z"/>
		</g>
		<g id="Layer">
			<path id="Layer" class="s0" d="m571 2343.8c4.1 1.3 7.7 4.3 10.5 7.5 0.9 1.1 1.6 2.4 2.7 3.4 0.8 0.8 1.9 1.3 2.6 2.2 0.7 0.9 1 2 1.7 2.9 0.5 0.6 1.7 1.7 2 2.2 0.7 1.1 0.7 3.9 0.8 5.2 0 5.1-3.3 9.9-2.9 15.1 0.1 1.8 0.8 3.4 1.2 5.1 1.3 4.7 3.2 9.2 4.5 13.9 1.7 6.5 5.1 12.3 6.4 19 0.4 2.2 1.6 4.6-0.1 6.6-3.3 3.8-9.3 4.7-13.7 6.8-6.9 3.3-13.4 7.8-20.7 10.5-2.5 0.9-10.5 3.4-11.7 6.1-1.1 2.5 1.9 4.9 2.4 7.2 0.6 2.5 0.3 5.4 1 7.9 0.5 1.7 1.5 3.4 2.1 5.1 0.8 1.9 1.1 3.8 1.3 5.8 0.2 1.4 1.1 2.7 1.6 4.1 0.3 1.1 0.3 2.2 0.4 3.2 0.3 2.3 3.7 9.6 1 10.8-2.2 1-4.6-1.1-6.1-2.3-1-0.8-2.2-1-3.2-1.8-0.6-0.4-0.7-1.2-1.2-1.7-0.8-1.1-2.3-1.4-3.4-2.2-1.4-1-2.5-2.8-3.9-4.1-1.4-1.2-3.3-1.4-4.8-2.4-1-0.6-1.2-1.9-1.9-2.7-1-1-2.4-1.4-3.2-2.6-0.8-1.3-1.2-2.9-2.1-4.2-0.7-1-3.2-2.1-3.4-2.8-0.7-1.6 0.3-3.9-0.4-5.6-0.6-1.6-2.6-2.6-3.3-4.2-0.2-0.4-0.1-2.3-0.1-2.7-0.3-1.8-1.8-3.4-2.5-5-0.7-1.6-0.3-3.9-0.4-5.6-0.2-2.6-1.8-8.8-0.4-11 1.3-2 8.4-3.1 10.8-4.3 6.5-3.2 13.1-6.1 19.7-9.4 1.7-0.8 3.3-1.9 5.1-2.8 3.9-1.8 10-1.9 12.3-5.8 1-1.9-1-3.1-1.8-4.6-1-2.1-1.3-4.2-1.9-6.3-0.3-1.1-1.1-2-1.4-3.1-1.6-4.3 0-9.2-1.3-13.6-0.4-1.4-1.4-2.7-1.9-4.1-1.1-3.2-2.1-7.4-1.9-10.7"/>
			<path id="Layer" fill-rule="evenodd" class="s0" d="m581 2350.3c1 1.2 1.8 2.5 2.9 3.7 0.8 0.9 1.8 1.4 2.7 2.3 0.8 0.8 1.2 2 1.8 2.9 0.7 1 1.8 1.7 2.4 2.6 0.6 1.1 0.6 2.6 0.7 3.7 0 1.7 0 3.3-0.3 4.9-0.7 3.2-2.2 6.2-2.5 9.4-0.1 0.8-0.1 1.7-0.1 2.5 0 1.7 0.9 3.4 1.3 5 1.2 4.3 2.8 8.5 4.1 12.8 0.5 2 1.1 4 1.8 5.9 1.6 4.2 3.5 8.2 4.5 12.6q0.3 1.4 0.7 2.7c0.4 2 1 4-0.4 5.7-3.3 4-9.4 4.8-13.8 6.9-6.4 3-12.3 7-18.9 9.7-3.1 1.3-6.3 2.2-9.4 3.7-1.3 0.7-3.3 1.6-4 3.1-0.5 1-0.2 2 0.2 2.9 0.8 1.7 2 3 2.3 4.8 0.5 2.4 0.3 4.9 0.9 7.2 0.5 2.1 1.7 4 2.4 6.1q0.5 1.4 0.7 2.9c0.2 0.9 0.2 1.8 0.4 2.6 0.3 1.2 1.1 2.3 1.4 3.5 0.4 1.1 0.3 2.3 0.5 3.5 0.5 2.2 1.4 4.3 1.8 6.6 0.2 1.3 0.5 3.3-1 4-2 1.1-4.3-0.8-5.8-2-1.1-0.9-2.4-1.3-3.6-2-0.8-0.5-0.9-1.7-1.6-2.3-1-0.8-2.3-1.2-3.3-2-1.1-0.9-1.9-2.1-2.9-3.1-0.8-0.8-1.5-1.4-2.6-1.8-1.1-0.5-2.5-0.8-3.3-1.7-0.6-0.7-0.9-1.6-1.5-2.3-0.9-1-2.3-1.5-3.2-2.7-0.8-1.3-1.2-2.8-2.1-4.1-0.5-0.6-1.2-1.1-1.9-1.5-0.5-0.4-1.2-0.8-1.5-1.3-0.3-0.4-0.3-1-0.3-1.4 0-1.5 0.5-3.2-0.3-4.6-0.8-1.5-2.3-2.4-3.1-3.9-0.1-0.2-0.1-0.5-0.1-0.8-0.1-0.9 0.1-1.9-0.2-2.8-0.6-1.6-1.9-2.9-2.5-4.5-0.5-1.7-0.1-3.5-0.2-5.2-0.1-2.2-0.7-4.5-0.9-6.7-0.1-1.3-0.2-3.1 0.6-4.3 0.6-0.9 1.8-1.4 2.8-1.8 2.6-1 5.4-1.4 8-2.5 6-2.9 12-5.7 18-8.6 1.2-0.6 2.3-1.1 3.4-1.7 1.2-0.8 2.5-1.6 3.9-2.1 3.8-1.6 9.4-1.7 11.8-5.6q0.3-0.6 0.2-1.1c0.1 0.3 0 0.7-0.2 1.1-2.4 3.9-7.9 4.1-11.8 5.7-2 0.8-3.7 2-5.6 3-6.5 3.2-13.1 6.3-19.7 9.4-2.3 1.1-5 1.5-7.4 2.4-1.1 0.4-2.6 0.8-3.3 1.9-0.6 0.9-0.6 2.1-0.6 3.1 0.1 2.7 0.8 5.2 0.9 7.8 0.1 1.7-0.2 3.5 0.3 5.1 0.5 1.7 1.8 2.9 2.4 4.6 0.3 0.7 0.3 1.4 0.3 2.2 0 0.4-0.1 1 0 1.3 0.9 1.5 2.4 2.4 3.2 3.9 0.6 1.1 0.4 2.5 0.3 3.7 0 0.7-0.1 1.6 0.2 2.3 0.2 0.3 0.6 0.5 0.8 0.7 0.9 0.7 2 1.2 2.6 2.1 0.9 1.3 1.3 2.8 2.2 4.1 0.8 1.2 2.2 1.6 3.2 2.7 0.6 0.7 0.8 1.6 1.5 2.3 0.7 0.7 1.9 1 2.8 1.4 1.2 0.5 2.2 1.1 3.1 2 0.9 1 1.7 2.2 2.8 3.1 1 0.8 2.4 1.2 3.3 2q0.5 0.4 0.7 0.8c0.3 0.5 0.5 1.1 0.9 1.4 1.2 0.8 2.6 1.2 3.7 2.1 1.4 1.1 3.6 3 5.5 2 1-0.5 1-1.8 1-2.7-0.2-2.7-1.4-5.1-2-7.6-0.2-1.2-0.1-2.4-0.4-3.6-0.4-1.1-1.2-2.2-1.5-3.4-0.1-0.5-0.1-1.1-0.2-1.7-0.2-1.3-0.4-2.6-0.9-3.8-0.7-2.1-1.9-3.9-2.4-6.1-0.6-2.3-0.4-4.8-0.9-7.2-0.1-0.6-0.3-1.2-0.5-1.8-1-1.8-3.1-3.9-2.1-6.2 0.6-1.2 2-2 3.1-2.6 2.8-1.6 5.8-2.4 8.8-3.6 2.4-1 4.7-2 7-3.2 4.6-2.3 9-5.1 13.6-7.3 4.3-2 10.4-2.9 13.6-6.8 1.6-1.8 0.5-4.3 0-6.4-0.2-1-0.4-2.1-0.7-3.2-0.9-3.2-2.3-6.3-3.5-9.4-1-2.4-1.8-4.9-2.5-7.5-1.2-4.3-2.9-8.5-4.1-12.8-0.5-1.6-1.3-3.4-1.3-5.1 0-0.9 0-1.7 0.1-2.6 0.4-3.4 2-6.6 2.6-10 0.2-1.4 0.2-2.8 0.2-4.2-0.1-1-0.1-2.4-0.7-3.4-0.5-0.8-1.4-1.3-2-2.1-0.7-0.9-1-2-1.7-2.9-0.7-0.9-1.8-1.5-2.6-2.2-1.3-1.3-2.2-2.9-3.4-4.2-2.7-2.9-5.9-5.3-9.7-6.6-0.1-0.1-0.2-0.2-0.1-0.4 0-0.1 0.2-0.2 0.3-0.1 3.9 1.3 7.1 3.7 9.9 6.7zm-9.1 59.7q0 0 0 0.1 0-0.1 0-0.1zm-1.8-3c-0.1-0.2-0.1-0.3-0.2-0.5 0.6 1.1 1.9 2.2 2 3.5-0.1-1.1-1.2-2.1-1.8-3zm-0.2-0.5q0 0 0 0 0 0 0 0zm-1.9-6.2c-0.3-0.9-0.9-1.7-1.3-2.6-1.6-3.7-0.5-8-1-11.9 0.5 3.9-0.6 8.2 1.1 11.9 0.4 0.9 0.9 1.7 1.2 2.6 0.7 2.1 0.9 4.3 1.9 6.2-1-1.9-1.3-4.1-1.9-6.2zm-2.3-14.5q0-0.1 0-0.1 0 0 0 0.1zm0-0.1c-0.1-1-0.3-1.9-0.7-2.8-0.5-1.2-1.2-2.2-1.6-3.4 0.4 1.2 1.2 2.2 1.7 3.4 0.3 0.9 0.5 1.8 0.6 2.8z"/>
		</g>
		<g id="Layer">
			<path id="Layer" class="s0" d="m521.9 2494.2c6 2.1 15.4 5.8 20 10.1 1.3 1.2 3.1 1.7 4.3 3.2 1.7 2.2 4.2 6 1.5 8.5-2.1 2-4.7 1.4-7.4 1.6-3.3 0.3-6.6 1.5-8.8 4.2-1.1 1.5-1.2 1.6-1 3.4 0.4 2.2 1.6 4.4 1.7 6.6 0.3 6.2-0.6 12.5-0.2 18.7 0.2 2.8 1.9 5 2.3 7.7 0.5 2.9 1.6 7.9-1.6 9.6-1.8 1-1.6 0.1-3.2-0.3-1.9-0.4-4.8 0.3-6.7 0.6-7.2 1.1-14.2 2.4-21.4 3.2-10.8 1.1-21.6 1.3-32.3 2.9-3.9 0.5-8-0.2-11.9 0.4-3.6 0.5-7 2-10.6 2.6-5.9 1-11.9 0.2-17.9 0.4-3.3 0.1-6.6 0.1-9.8 0.6-1.6 0.3-3.4 0.8-5 0.8-1.9 0.1-2.8-1.4-4.5-1.9-2.1-0.7-3.8-1.9-5.9-2.8-2.8-1.3-6-0.9-8.9-2-1.6-0.6-2.8-1.9-4.7-1.7-1.7 0.2-3.5 1.2-5.1 2-3.4 1.6-6.9 3.1-10.4 4.7-3.3 1.6-6.8 2.7-10.2 4.1-6.6 2.8-13.1 7.5-20.5 7.9-4.4 0.2-3.3-3.6-6.2-4.4-4.1-1.2-7.8-3.2-11.2-5.9-1-0.7-1.9-0.7-2.9-1.2-1.9-0.7-3.9-2.2-5.5-3.5-0.9-0.7-1.3-1.8-2.2-2.6-1.6-1.3-3.8-2.1-5.3-3.6-0.8-0.7-1.1-1.8-1.8-2.5-1.7-1.7-6.1-1.9-5.8-5.5 0.4-4.3 9.8-3.2 12.4-3 1.8 0.1 3.5 0.8 5.2 1 1.8 0.1 3.7-0.4 5.5-0.3 3.1 0 6.4 0.3 9.5 0.6 1.6 0.2 3.2 0.9 4.9 1.2 4.1 0.7 11.7-1.4 15.4-2.8 9.7-3.8 18.5-8.2 29.1-8.7 6.9-0.4 14.9 3 21.6 4.7 3.7 0.9 7.6 0.6 11.4 0.6 2.9 0.1 5.7 0.4 8.6 0.5 4.2 0 9-0.4 13.1-1.1 3.1-0.6 6-2.1 9.3-2.3 2.8-0.1 6.1 0.8 8.8-0.2 2.4-0.9 3.6-1.7 6.2-1.9 5.2-0.4 10.5 0.7 15.7 0.2 3.6-0.3 7-1.5 10.5-2.2 3.7-0.8 7.7-0.6 10.1-4 1.5-2.4-0.2-5.2-0.4-7.8-0.2-2.6 0.2-4.8-0.4-7.5-0.4-2.1-1.9-4.6-1.7-6.8 0.3-2.8 1.1-5.7 1.5-8.5"/>
			<path id="Layer" fill-rule="evenodd" class="s0" d="m539.4 2502c1.1 0.7 2 1.6 3 2.4 1 0.8 2.3 1.3 3.3 2.2 0.5 0.4 0.8 0.8 1.1 1.3 1.6 2.1 3.5 5.5 1.4 7.9-1.8 2.1-4.7 1.9-7.2 2-2.4 0.1-4.8 0.7-6.8 2-1 0.6-1.8 1.3-2.5 2.2-0.5 0.6-1 1.3-1 2.1 0.1 2.7 1.6 5 1.8 7.7 0.3 4.7-0.2 9.4-0.3 14 0 1.8-0.1 3.7 0.1 5.4 0.3 2 1.4 3.7 2 5.6 0.2 0.8 0.3 1.3 0.4 2.1 0.5 3 1.3 7.3-1.9 9.1-0.5 0.3-1.1 0.6-1.6 0.5-0.7-0.2-1.2-0.6-1.8-0.7-1.1-0.2-2.2-0.1-3.2 0-7.7 1.1-15.3 2.6-23 3.5-7.7 0.9-15.5 1.2-23.3 1.9-3.9 0.4-7.8 0.9-11.7 1.3-3.7 0.3-7.3-0.1-10.9 0.3-2.4 0.3-4.8 1.2-7.1 1.8-1.7 0.5-3.3 0.8-5 1-4.5 0.6-9 0.2-13.5 0.1-2.7 0-5.3 0.1-7.9 0.3-1.9 0.1-3.8 0.2-5.7 0.6-1.5 0.3-3.1 0.8-4.7 0.6-1.3-0.2-2.2-1.1-3.3-1.6-0.9-0.5-1.9-0.8-2.8-1.2-1.3-0.6-2.6-1.4-3.9-2-2.8-1.2-6-1-8.8-1.9-1.8-0.6-2.7-1.8-4.7-1.7-1.4 0.1-3 0.9-4.2 1.5q-3 1.5-6 2.8c-2.9 1.3-5.7 2.6-8.6 3.8-3.4 1.4-6.8 2.6-10.1 4.2-3.3 1.6-6.6 3.4-10.1 4.7-2.4 0.9-5.1 1.7-7.7 1.6q-0.7 0-1.3-0.2c-1.8-0.6-2-2.5-3.3-3.6-0.9-0.7-2.1-0.9-3.2-1.2-2.3-0.9-4.5-2-6.6-3.4-1-0.7-2-1.6-3-2.2-0.8-0.4-1.7-0.5-2.5-0.8-0.8-0.4-1.6-0.8-2.4-1.3-1.2-0.8-2.5-1.6-3.5-2.7-0.7-0.7-1.1-1.5-1.8-2.2-1.6-1.4-3.7-2.2-5.3-3.6-0.8-0.7-1.1-1.8-1.8-2.5-1.6-1.7-4.6-1.6-5.6-4-0.8-1.9 0.3-3.5 2.1-4.2 2.6-1.1 5.7-0.8 8.4-0.6 1.1 0.1 2.1 0.1 3.2 0.3 1.4 0.3 2.8 0.8 4.3 0.8 1.4 0 2.7-0.2 4.1-0.3 2.4-0.1 4.9 0.1 7.3 0.3 1.4 0.1 2.9 0.2 4.3 0.5 1.6 0.4 3.1 1.1 4.8 1.2 2.2 0.1 4.5-0.3 6.7-0.8 2.6-0.5 5.1-1.2 7.6-2.2 9.6-3.7 19.4-8.7 30-8.7 5.3-0.1 10.5 1.7 15.5 3.2 2 0.6 4 1.3 6.1 1.7 3.4 0.7 7 0.4 10.5 0.5 2.9 0 5.7 0.4 8.6 0.4 2.6 0 5.1-0.1 7.7-0.4 2-0.2 4.1-0.4 6.2-0.8 2.3-0.5 4.5-1.5 6.9-1.9 3-0.6 6 0.4 9-0.1 1-0.2 2-0.6 2.9-0.9-0.9 0.3-1.8 0.8-2.8 1-3.1 0.5-6.1-0.5-9.1 0-2.4 0.4-4.6 1.4-6.9 2-2 0.4-4.2 0.6-6.2 0.8-2.6 0.3-5.1 0.4-7.7 0.4-2.9 0-5.7-0.4-8.6-0.4-3.5 0-7.1 0.2-10.5-0.5-1.5-0.3-3-0.7-4.4-1.1-5.6-1.7-11.3-3.8-17.2-3.8-10.1 0.1-19.5 4.6-28.7 8.3q-4.3 1.7-8.8 2.7c-2.3 0.5-4.6 0.8-6.9 0.7-1.6-0.1-3.1-0.7-4.7-1.1-1.4-0.4-2.9-0.4-4.3-0.5-2.4-0.2-4.9-0.5-7.3-0.3-1.4 0-2.7 0.3-4.1 0.3-1.5-0.1-2.9-0.5-4.4-0.8-0.8-0.2-1.7-0.2-2.6-0.3-2.8-0.2-6.1-0.5-8.8 0.6-1.6 0.6-2.7 2.2-2 3.9 0.9 2.3 4 2.3 5.6 3.9 0.7 0.7 0.9 1.9 1.7 2.5 1.7 1.4 3.8 2.2 5.4 3.7 0.7 0.6 1.1 1.5 1.8 2.1 0.9 1.1 2.3 1.9 3.5 2.7q1.1 0.7 2.3 1.2c0.8 0.3 1.7 0.5 2.5 0.9 1.1 0.6 2 1.5 3 2.2 1.8 1.1 3.7 2.1 5.7 2.9 0.6 0.3 1.2 0.5 1.9 0.8 0.8 0.2 1.6 0.4 2.3 0.9 1.2 1.1 1.5 3 3.2 3.5 0.4 0.2 0.8 0.2 1.2 0.2 2 0.1 4-0.3 5.9-0.9 4.1-1.4 7.9-3.5 11.8-5.4 3.3-1.6 6.7-2.8 10.1-4.2 2.9-1.1 5.7-2.5 8.6-3.8q2.6-1.2 5.2-2.4c1.5-0.7 3.3-1.9 5.1-1.9 2.1-0.1 3 1.1 4.8 1.7 2.9 0.9 6.1 0.7 8.9 1.9 1.3 0.6 2.5 1.4 3.9 2 0.9 0.4 1.9 0.7 2.8 1.1 1 0.6 1.9 1.5 3.2 1.6 1.5 0.2 3.1-0.3 4.5-0.6 1.9-0.4 3.8-0.5 5.8-0.6 2.6-0.1 5.2-0.2 7.9-0.2 4.4 0 8.9 0.4 13.4-0.2 1.7-0.2 3.4-0.6 5-1 2.4-0.7 4.7-1.5 7.1-1.8 3.7-0.5 7.3 0 10.9-0.3 3.9-0.4 7.8-1 11.7-1.3 7.2-0.6 14.4-1 21.5-1.8 7.9-0.8 15.8-2.2 23.6-3.5 1.3-0.2 2.7-0.4 4.1-0.3 0.4 0.1 0.9 0.1 1.3 0.3 0.3 0.1 0.7 0.5 1.1 0.5 0.4 0 0.8-0.2 1.2-0.4 3-1.7 2.1-6.5 1.5-9.4q-0.3-1.3-0.8-2.5c-0.5-1.5-1.2-2.9-1.5-4.5-0.2-1.7-0.1-3.6-0.1-5.4 0-4.1 0.4-8.3 0.3-12.5 0-1.2-0.1-2.4-0.4-3.6-0.6-1.9-1.4-3.7-1.4-5.6-0.1-1.2 0.9-2.3 1.7-3.1 2.2-2.3 5.3-3.4 8.4-3.7 1.5-0.1 3 0.1 4.5-0.2 2-0.3 3.9-1.8 3.8-3.9 0-1.1-0.4-2.1-0.9-3-0.6-1.1-1.4-2.3-2.3-3.2-0.9-0.8-2-1.2-3-1.9-0.7-0.5-1.2-1.1-1.9-1.6-2.2-1.8-4.7-3.1-7.3-4.4-3.7-1.8-7.5-3.3-11.4-4.6-0.1-0.1-0.2-0.2-0.1-0.4 0-0.1 0.2-0.2 0.3-0.1 6 2.1 12.2 4.4 17.4 8zm-40.2 9.8q-0.1 0.2-0.1 0.4 0-0.2 0.1-0.4zm-0.1 0.4c-0.4 1.9-0.8 3.8-1.1 5.6q0 0 0 0 0 0 0 0 0 0 0 0 0-0.1 0-0.3c0.4-1.8 0.8-3.5 1.1-5.3zm-1.1 5.6q0 0.2-0.1 0.3 0.1-0.1 0.1-0.3zm-0.1 0.3q0 0.5-0.1 0.9 0 0 0-0.1 0.1-0.4 0.1-0.8zm-0.3 3.3c-0.1-0.8 0-1.6 0.2-2.4-0.2 0.8-0.3 1.6-0.2 2.4zm1.7 5.7c0.3 1.1 0.3 2.2 0.4 3.2-0.1-1-0.2-2.1-0.4-3.2-0.2-0.9-0.5-1.9-0.9-2.8 0.4 0.9 0.7 1.9 0.9 2.8zm0.4 3.4q0-0.1 0-0.2 0 0.1 0 0.2zm0 3.5c0.1 1.6 0.8 3.5 1 5.3-0.2-1.7-0.9-3.6-1-5.3-0.1-1.2 0-2.3 0-3.5 0 1.2 0 2.3 0 3.5zm0.9 6.7q0.1-0.7 0.1-1.4 0 0.7-0.1 1.4zm-0.5 1.7c-0.1 0.1-0.2 0.1-0.3 0.2q0.7-0.9 0.8-1.9c-0.1 0.6-0.2 1.2-0.5 1.7zm-0.3 0.3c-0.3 0.4-0.6 0.5-0.9 0.8 0.3-0.3 0.6-0.5 0.9-0.9q0 0.1 0 0.1zm-0.9 0.8q0 0 0 0 0 0 0 0zm0 0q-0.3 0.2-0.5 0.4 0.2-0.2 0.5-0.4zm-0.5 0.4q-0.3 0.3-0.6 0.4 0.3-0.1 0.6-0.4zm-2 1.1q0.7-0.3 1.4-0.7-0.7 0.4-1.4 0.7zm-0.3 0.1q0.2-0.1 0.3-0.1-0.1 0-0.3 0.1zm-0.8 0.3q0.5-0.1 0.8-0.3-0.3 0.2-0.8 0.3zm-5.3 1c-3.5 0.8-7 2-10.6 2.3-0.6 0-1.2-0.1-1.8-0.1 4.3-0.2 8.3-1.3 12.4-2.2 1.2-0.3 2.4-0.5 3.7-0.7-1.3 0.2-2.5 0.5-3.7 0.7zm-13.1 2.3c-1 0-1.9-0.1-2.9-0.1q1.8 0.1 3.6 0c-0.3 0-0.5 0.1-0.7 0.1zm-11.5-0.2q4.3-0.2 8.6 0.1-4.3-0.3-8.6-0.1zm-1.9 0q0.2 0 0.3-0.1c0.6 0 1.1 0.1 1.6 0.1-0.6 0-1.3-0.1-1.9 0zm0 0q0 0 0 0 0 0 0 0zm0 0q0 0 0 0 0 0 0 0zm0 0q-1.5 0.2-2.9 0.7c0.6-0.3 1.3-0.6 2-0.7 0.3 0 0.6 0 0.9 0zm-4.1 1.1q0.4-0.2 0.8-0.3c0.1-0.1 0.2-0.1 0.4-0.1-0.4 0.1-0.8 0.2-1.2 0.4z"/>
		</g>
		<g id="Layer">
			<path id="Layer" class="s0" d="m389.3 2352.7c-4.6-1.3-9.3-2.5-14-3.9-4.1-1.2-8.3-3.5-12.8-3.3-3 0.1-6.1 1.9-8.6 3.4-2.5 1.5-5.5 2.3-8 3.7-1.7 1-3.3 2.2-5.1 3.1-4.6 2.6-9.5 4.7-14.3 7.1-7.6 3.8-15 8.5-22.4 12.7-2.1 1.2-4.5 2.2-6.6 3.3-1.6 0.8-3.6 1.2-5.4 1.8-3.2 1.1-8 3.9-9.8 6.9-0.9 1.5-0.9 2.9-1.2 4.6-0.7 3.5-0.8 7.2-1.4 10.8-0.7 3.8-1.9 7.5-2.6 11.3-0.5 3.4-0.9 6.8-1.3 10.2-0.7 5.7-1.8 11.3-2.7 17-0.2 1.4-0.2 2.9-0.6 4.2-0.9 2.6-3.3 2.8-5.2 4.3-0.5 0.4-1.6 0.9-1.3 1.5 0.6 0.8 5.1-1.6 5.6-1.9 1.2-0.8 0.9-1 2.2-1.5 2-0.8 4.4-0.7 6.3-1.8 1.1-0.7 1.9-1.7 3-2.3 2.1-1.1 4.5-1.3 6.6-2.3 0.8-0.3 1.4-0.8 2.1-1.1 0.2-0.1 1.6-0.4 1.8-0.8 0.2-0.6-0.8-2.4-0.9-3-0.3-1.3-0.5-2.6-0.4-4 0.1-1.9 1.1-3.5 1.3-5.4 0.4-2.8 0.2-5.9 0.7-8.7 0.3-1.7 1.6-3.4 1.6-5.2 0-1.2-0.4-0.9-0.4-2.2 0-1.4 0.2-2.6 0.1-4.1-0.1-0.6-0.5-1.1-0.5-1.8 0-1.7 1-3.7 0.9-5.5 0-1.1-0.6-1-0.2-2.1 1.4-3.7 5.5-6.3 8.8-7.9 0.3-0.1 0.4-0.4 0.7-0.5 0.3-0.1 0.6 0.2 0.9 0.1 0.8-0.2 1.3-1 2-1.2 3.7-1.1 7.4-2.3 10.8-4.1 2.3-1.2 5-2.8 7.1-4.3 1.7-1.3 3-3 4.7-4.2 2.3-1.5 4.6-3 6.9-4.5 1.6-0.9 3.4-2.3 5.1-2.8 2.1-0.7 4.1-1.3 6-2.3 6.2-3.4 12.3-7.1 18.3-11"/>
			<path id="Layer" fill-rule="evenodd" class="s0" d="m374.4 2348.2c4.9 1.6 10 2.8 15 4.2 0.1 0 0.2 0.2 0.2 0.4 0 0.1-0.2 0.2-0.3 0.1-5.1-1.3-10.1-2.6-15.1-4.2-3.8-1.2-7.6-3.1-11.7-2.9-3.4 0.1-6.2 2.1-9.1 3.7-1.9 1.1-4.1 1.7-6.1 2.7-2.2 1-4.2 2.5-6.3 3.7-5.9 3.3-12.2 5.9-18.2 9.1-6.6 3.6-13 7.7-19.7 11.3q-1.6 0.8-3.3 1.6c-1.2 0.6-2.3 1.2-3.5 1.6-1.4 0.5-2.7 0.8-4.1 1.3-1.9 0.6-3.7 1.6-5.4 2.7-1.4 0.9-2.8 2-3.8 3.3-1.3 1.6-1.4 3.4-1.7 5.3-0.7 4.2-0.9 8.5-1.8 12.7-0.7 3.1-1.7 6.3-2.2 9.5-0.8 4.3-1.1 8.7-1.7 13-0.6 4.3-1.4 8.5-2.1 12.8-0.2 0.7-0.3 1.3-0.3 2-0.3 2-0.3 4.1-1.9 5.5-0.8 0.6-1.7 1-2.5 1.5-0.6 0.3-1.1 0.8-1.7 1.2-0.2 0.1-1.4 0.8-0.9 1 0.5 0.4 2.1-0.3 2.6-0.5 0.9-0.4 1.9-0.8 2.7-1.4 0.5-0.3 0.9-0.7 1.3-1.1 0.8-0.5 1.7-0.7 2.5-0.9 1.3-0.3 2.6-0.4 3.8-0.8 1.3-0.6 2.2-1.6 3.4-2.4 1.9-1.2 4.1-1.5 6.1-2.2 0.9-0.4 1.6-0.8 2.4-1.2 0.5-0.3 2.3-0.8 2.5-1.2 0.2-0.4-0.7-2.1-0.8-2.5-0.5-1.4-0.7-3.3-0.5-4.8 0.3-1.8 1-3.3 1.3-5 0.4-2.9 0.2-5.8 0.7-8.7 0.3-1.8 1.5-3.3 1.6-5.2 0.1-0.6-0.3-1.1-0.4-1.6-0.1-1.3 0.2-2.7 0.1-4 0-0.2 0-0.6-0.1-1-0.1-0.5-0.4-0.9-0.4-1.5 0-1.5 0.7-3 0.9-4.6 0.1-0.5 0.1-1-0.1-1.5 0-0.2-0.2-0.5-0.2-0.7 0-0.1 0.1-0.2 0.1-0.3-0.1 0.4 0.2 0.8 0.3 1.1 0.1 0.5 0.1 1 0 1.5-0.1 1.5-0.8 2.9-0.8 4.5 0 0.6 0.4 1.2 0.4 1.8 0.2 1.5-0.2 3.1 0 4.6 0.1 0.6 0.4 1.1 0.4 1.7-0.1 1.9-1.4 3.4-1.7 5.3-0.4 2.8-0.2 5.8-0.6 8.6-0.3 1.7-1.1 3.3-1.3 5-0.2 1.5-0.1 3.3 0.5 4.7 0.2 0.5 1 2.2 0.8 2.7-0.4 0.7-1.6 0.7-2.2 1.1-1 0.4-1.7 1-2.8 1.4-2 0.7-4.2 1-6 2.2-0.9 0.6-1.6 1.4-2.6 1.9-1 0.5-2 0.8-3.1 1-1.3 0.3-2.5 0.4-3.7 1-0.6 0.3-1.1 0.9-1.6 1.3-0.9 0.6-1.9 1-2.8 1.4-0.6 0.2-2.3 1-2.9 0.6-0.2-0.2-0.2-0.6 0-0.8 0.3-0.5 1.2-1 1.7-1.3q0.5-0.4 1-0.6c1.9-1.1 3.3-1.8 3.8-4 0.1-0.5 0.2-1 0.3-1.4 0.6-5.4 1.7-10.8 2.5-16.2 0.8-5.7 1.1-11.4 2.5-16.9 0.5-2.5 1.3-5 1.7-7.6 0.4-1.8 0.5-3.5 0.7-5.3 0.2-1.8 0.4-3.6 0.7-5.4 0.3-2 0.5-3.9 1.8-5.5 0.8-1.1 1.9-2 3-2.8 1.9-1.4 4.1-2.6 6.4-3.4 1.5-0.5 3-0.9 4.5-1.4 1-0.4 2-1 3-1.5 2.8-1.3 5.4-2.8 8.1-4.3 6.2-3.7 12.3-7.4 18.7-10.6 5-2.6 10.3-4.7 15.2-7.6 1.8-1.1 3.5-2.4 5.5-3.3 2-0.9 4.1-1.6 6.1-2.7 2.9-1.6 5.8-3.6 9.3-3.7 4.2-0.2 8 1.7 11.9 2.9zm-78.7 50q0 0 0 0 0 0 0 0zm0.7-1.9c1.8-3.1 5-4.9 8.2-6.5 0.2-0.1 0.3-0.4 0.5-0.5 0.4-0.3 0.8 0.2 1.3 0 0.5-0.2 0.9-0.8 1.4-1q0.2-0.1 0.4-0.2c1.2-0.4 2.3-0.7 3.5-1-1.2 0.3-2.3 0.8-3.4 1.1-0.8 0.2-1.2 0.9-1.9 1.2-0.4 0.2-0.7-0.2-1.1-0.1-0.2 0.1-0.4 0.4-0.5 0.5-0.3 0.2-0.7 0.3-1 0.5-2.8 1.4-5.7 3.3-7.3 6.1-0.3 0.5-0.7 1.1-0.8 1.8 0.1-0.7 0.4-1.4 0.7-1.9zm52.4-30.3c-2.7 1.5-5.9 1.9-8.6 3.6-1.6 0.9-3.2 2-4.8 3-1.8 1.2-3.7 2.3-5.4 3.7-1.2 1-2.2 2.2-3.5 3.2-1.9 1.5-4.1 2.8-6.3 4-2.3 1.3-4.8 2.3-7.3 3.2 2.5-0.9 4.9-2 7.3-3.2 2.1-1.2 4.3-2.5 6.3-4.1 1.2-1 2.3-2.2 3.5-3.1 1.3-1.1 2.8-2.1 4.3-3 1.9-1.3 3.9-2.6 5.9-3.8 2.7-1.6 5.9-2.1 8.6-3.6 6.2-3.3 12.3-7.1 18.3-10.9-6 3.9-12.1 7.6-18.3 11zm-36.8 21q0.4-0.2 0.9-0.3-0.5 0.1-0.9 0.3z"/>
		</g>
		<g id="Layer">
			<path id="Layer" class="s0" d="m269.2 2450.1c-6.7 4.2-14.1 6.2-21.2 9.4-3.1 1.4-5.9 3.4-9 4.9-3.3 1.5-10.4 3.3-12.4 6.5-0.5 0.7-0.3 0.8-0.2 1.5 0.4 2.5 3.6 1.9 5.4 3.1 0.9 0.6 1.1 1.8 2 2.5 2.7 2 6.2 3.8 9.6 4.1 5.1 0.4 10-2.1 14.8-3.7 3.8-1.2 7.6-2.5 11.3-4 1.9-0.8 3.7-2 5.6-2.8 3.6-1.5 7.2-2.9 10.6-4.9 2-1.2 6.4-4.9 7-7.5 0.4-1.3-0.2-2.7 0.1-4.1 0.3-1.6 1.3-3.3 1.3-5 0-1.6-0.8-3.2-0.8-4.8-0.1-1.2 0.5-2.3 0.4-3.4 0-1.7-1.5-3.7-2.8-4.7-1.3-0.9-4.2-0.1-5.6 0.1-4 0.9-7.7 2.5-11 4.9"/>
			<path id="Layer" fill-rule="evenodd" class="s0" d="m288.9 2436.8c-0.6 0-1.3 0.1-1.8 0.2 0.5-0.1 1-0.2 1.6-0.3 0 0 0.1 0.1 0.2 0.1zm0 0q0 0 0 0 0 0 0 0zm0 0q0.1 0 0.2 0-0.1 0-0.2 0zm0.2 0c0.6 0 1.1 0.1 1.6 0.3 1.5 0.8 3 3.1 3.1 4.8 0 1.1-0.5 2.2-0.5 3.4 0.1 1.6 0.9 3.2 0.9 4.9-0.1 1.7-1.1 3.2-1.4 4.9-0.2 1.3 0.2 2.6 0 3.8-0.1 1.2-0.9 2.3-1.7 3.2-1.5 1.7-3.2 3.3-5.1 4.5-3.4 2.2-7.2 3.5-10.8 5.1-1.9 0.8-3.7 2-5.7 2.8-3.7 1.6-7.5 2.8-11.2 4.1-4.7 1.5-9.3 3.8-14.3 3.7-3.7-0.1-7.4-1.9-10.3-4.2-1-0.8-1.3-2.1-2.5-2.7-1.8-0.9-4.5-0.4-5-3-0.1-0.3-0.2-0.7-0.1-1 0.3-1.2 1.7-2.2 2.7-2.8 1.9-1.2 3.9-2 5.9-2.8 1.4-0.5 2.9-1 4.2-1.7 2.6-1.2 5-2.8 7.5-4.1 1.6-0.9 3.4-1.6 5.1-2.3 3.6-1.4 7.2-2.7 10.7-4.3q2.2-0.9 4.3-2.1 0.5-0.2 0.9-0.4c0.3-0.2 0.6-0.3 0.8-0.5 1.2-1.4 2.3-2.9 3.5-4.4 1.1-1.4 0 0-2.7 3.9 0.2-0.1 0.3-0.1 0.4 0.1 0.1 0.1 0 0.3-0.1 0.3-0.8 0.6 0.4-0.9-0.8 0.5-0.2 0.3-0.6 0.4-0.9 0.5q-1.7 1-3.4 1.8c-4.1 1.9-8.4 3.4-12.5 5.1-1.7 0.7-3.4 1.4-5.1 2.3-2.5 1.3-4.9 2.8-7.5 4.1-2.9 1.4-6.1 2.2-9 3.7-1.1 0.6-3.3 1.9-3.6 3.2-0.1 0.3 0 0.6 0.1 0.9 0.4 1.8 2.2 1.8 3.7 2.3 0.4 0.1 0.8 0.2 1.1 0.3 1.3 0.6 1.5 2 2.5 2.8 3 2.4 6.9 4.2 10.7 4.2 4.3-0.1 8.4-1.9 12.4-3.3 4.2-1.4 8.4-2.7 12.4-4.4 2-0.8 3.8-2 5.7-2.8 3.6-1.6 7.4-2.9 10.8-5 2.1-1.4 4.1-3.2 5.7-5.3 0.5-0.6 1-1.5 1.1-2.3 0.2-1.3-0.2-2.5 0-3.8 0.3-1.7 1.3-3.2 1.4-5 0.1-1.6-0.8-3.2-0.9-4.8 0-1.2 0.5-2.3 0.5-3.4 0-1.7-1.6-4-3-4.7-0.5-0.3-1-0.4-1.6-0.4zm-2 0.2q-0.1 0-0.1 0 0 0 0.1 0zm-0.1 0c-0.9 0.2-1.8 0.4-2.7 0.7 0.7-0.2 1.5-0.5 2.3-0.6q0.2-0.1 0.4-0.1zm-4.2 1c0.5-0.1 1-0.2 1.5-0.3-0.5 0.1-1 0.2-1.5 0.3zm-0.3 0.1q0.1-0.1 0.3-0.1-0.2 0-0.3 0.1zm0 0c-0.6 0.2-1.1 0.4-1.6 0.6 0.5-0.2 1-0.4 1.6-0.6zm-1.6 0.6q-0.3 0.1-0.5 0.2 0.2-0.1 0.5-0.2zm-2.8 1.2q0.3-0.2 0.5-0.3c0.6-0.3 1.2-0.5 1.8-0.7-0.7 0.3-1.5 0.6-2.3 1zm0 0q0 0 0 0 0 0 0 0zm0 0q0 0 0 0 0 0 0 0zm0 0q-1.1 0.5-2.1 1.1c0.5-0.3 1.2-0.7 1.8-1q0.1 0 0.3-0.1zm-6.3 6.3c-1.1 1.6 2.5-4 2.5-4 0 0-0.4 0.8 0.8-0.6-1.2 1.5-2.2 3.1-3.3 4.6z"/>
		</g>
	</g>
	<g id="Layer-7">
		<g id="Layer">
			<path id="Layer" class="s1" d="m676.7 2146.7l10.9 39.8-6 28.2-34.9 26.8 3.9 82.7 10.2 6.7-3.3-85.2 34.1-25 7.7-30.5-10.3-43.9z"/>
			<path id="Layer" fill-rule="evenodd" class="s1" d="m684.4 2146.4q0 0-0.1 0 0.1 0 0.1 0zm-0.1 0q-0.7 0.1-1.4 0.1c-2.1 0.1-0.1 0-6.2 0.2 7.4-0.2 6.7-0.2 7.6-0.3zm2.2 35.8q0.4 1.6 0.9 3.2c0.1 0.4 0.2 0.7 0.3 1.1 0 0.3-0.2 0.6-0.2 0.8q-0.4 1.9-0.8 3.9-1.2 5.6-2.4 11.2-0.9 3.9-1.7 7.7-0.3 1.5-0.7 3.1c-0.1 0.5 0 1-0.3 1.5-0.2 0.4-0.7 0.5-1.1 0.8q-0.5 0.4-1 0.8-2.7 2-5.3 4.1-9.3 7.1-18.6 14.3-3.1 2.3-6.1 4.6-0.4 0.4-0.9 0.8-0.5 0.3-0.9 0.7c-0.3 0.2-0.7 0.4-0.8 0.7-0.2 0.4-0.1 0.8-0.1 1.2q0 0.7 0 1.3 0.2 3.5 0.4 7 0.6 12.6 1.2 25.2 0.3 6 0.5 12 0.3 5 0.5 10.1 0.5 9.6 0.9 19.2 0.1 2.2 0.2 4.5 0.1 0.5 0.1 1.1c0 0.3 0 0.8 0.2 1.1 0.3 0.5 1.2 0.8 1.5 1.1q1.7 1.1 3.4 2.2 1.5 1 2.9 1.9 0.6 0.4 1.1 0.8c0.3 0.1 0.6 0.4 0.9 0.5 0 0 0 0 0 0-0.3 0-0.7-0.3-0.9-0.5q-0.6-0.4-1.1-0.7-0.8-0.5-1.6-1.1-0.7-0.4-1.3-0.8-1.7-1.2-3.4-2.3c-0.4-0.2-1.2-0.6-1.5-1.1-0.3-0.3-0.3-0.8-0.3-1.1q0-0.6 0-1.1-0.1-2.3-0.2-4.5-0.4-8.8-0.9-17.6-0.2-5.2-0.5-10.4-0.3-6.6-0.6-13.2-0.6-12.7-1.2-25.3-0.1-2.9-0.3-5.8 0-0.6 0-1.2 0-0.6-0.1-1.3c0-0.4-0.1-0.9 0.1-1.3 0.2-0.3 0.5-0.5 0.8-0.7q0.5-0.3 0.9-0.7 2.8-2.2 5.7-4.3 9.6-7.4 19.1-14.8 2.6-1.9 5.2-3.9 1-0.8 2-1.6c0.3-0.2 0.8-0.4 1-0.8 0.3-0.4 0.2-1 0.3-1.5q0.2-0.7 0.4-1.5 1-4.6 2-9.2 1.2-5.6 2.4-11.2 0.3-1.5 0.6-3c0.1-0.6 0.4-1.1 0.4-1.7 0-0.4-0.2-0.7-0.3-1.1q-0.3-1-0.6-2.1-1.2-4.3-2.3-8.5c-2.6-9.4 0 0-7.7-28.1q-0.1-0.1 0-0.1 0 0 0 0c0 0.1 0 0 0 0.1 9.8 35.4 9 32.5 9.8 35.5zm-25.9 148.5q0 0 0.1-0.1-0.1 0.1-0.1 0.1zm0.1-0.1c0.1-0.1 0-0.8 0-1q0-1.9-0.1-3.8-0.3-7.5-0.6-14.9-0.8-21.8-1.7-43.6-0.2-6.8-0.5-13.6 0.3 6.8 0.5 13.6 0.9 21.8 1.8 43.6 0.2 7.4 0.5 14.9 0.1 1.2 0.1 2.5 0.1 0.8 0.1 1.6c0 0.1 0.1 0.6-0.1 0.7zm38.2-141.8q0 0 0 0 0 0 0 0zm0 0q-0.5-2.4-1.1-4.8 0.4 1.8 0.9 3.5 0.1 0.7 0.2 1.3zm0.4 1.4c0 0.5-0.3 1.1-0.5 1.6 0.2-0.5 0.4-1.1 0.5-1.6 0-0.5-0.3-0.9-0.4-1.4 0.1 0.5 0.4 0.9 0.4 1.4zm-0.5 1.6q0 0 0 0 0 0 0 0zm-4.1 16.5q-1.1 4.4-2.2 8.8 1-3.9 1.9-7.7 1.6-6.4 3.2-12.7-1.4 5.8-2.9 11.6zm-2.2 8.9q0-0.1 0-0.1 0 0 0 0.1zm-0.6 2.5c-0.1 0.4-0.1 0.7-0.3 1 0.2-0.3 0.2-0.6 0.2-1q0.3-0.8 0.5-1.7 0.1-0.4 0.2-0.8-0.3 1.3-0.6 2.5zm-0.3 1q0 0 0 0 0 0 0 0zm-0.9 0.7q-0.4 0.3-0.9 0.6 0.4-0.3 0.9-0.7c0.3-0.2 0.7-0.3 0.9-0.6-0.2 0.3-0.6 0.5-0.9 0.7zm-30.2 22.1q-0.5 0.3-0.9 0.7-0.5 0.4-1 0.7c-0.4 0.3-1 0.6-1 1.1q-0.1 0.3 0 0.6c-0.1-0.2-0.1-0.4-0.1-0.6 0.1-0.5 0.6-0.8 1-1.1q0.5-0.4 1-0.7 3-2.2 6-4.4 0.4-0.3 0.8-0.5-2.9 2.1-5.8 4.2zm-2.9 3.3q0-0.1 0-0.2 0 0.1 0 0.2z"/>
		</g>
		<path id="Layer" class="s2" d="m640.6 2328.1l-75.2-2.6 12.2 10.6 75 2.7z"/>
		<path id="Layer" class="s3" d="m561.6 2328.4l-12.4 37.3 4.6 37.8-52.3 19.5 15.7 51.9 8.9-1.5-8-41.9 48.1-20-6.4-44.6 9.8-29.5z"/>
		<path id="Layer" class="s3" d="m507.6 2485l-24 13 0.6 33.1-62 6.3-33.8-16.4-49 16.3c0 0-54.2-25.1-68.3-52.7-3-5.7-6.9 2.5-6.9 2.5l-3.2 5.1 38.8 39.5 35.2 19.5 50.8-14.6 34.5 15.4 78.8-8.7-3.6-37.8 19.4-13.3z"/>
	</g>
	<g id="Layer-3">
		<path id="Layer" fill-rule="evenodd" class="s4" d="m679.6 2069.3c12 10.9 45.7 57 48.1 72.1 0.1 0.5-14 3.5-14.4 3.5l34.3 23.2 8.7 41.8-33 53.2-27.6 8.1-3.5 94.9-26.2-18.7 13.9 21.4-83.4-8.3-4.4 20.4 15.3 48.6-49.7 22.7 17.9 53.4-33.5-2.3 21.8 14.5-28.2 6.1 2.9 47-124 12.4-25.6-8.1-44.3 19.5c0 0-7.9-2.3-17.5-8.1-11.3-6.7-25.4-18.3-39.4-30.5-11.1-9.6-39.5-39.6-51.6-55.8-0.3-0.3 30.1-21.8 30.1-21.8l-24.4 8.7-22.4-13.3c-54.2-98.4-35.9-235.2 48.7-339.7 64.9-80.1 155.2-126.6 243.1-128.3 60.1-1.1 119.2 18.8 168.3 63.3zm-392 79.9c-76.9 94.9-91.7 217.7-46.4 306.7l26.8-9.8 9.8-65.3 84.9-37.9 39.5 11.5-34 3.4-67.3 40.6-0.8 32.1-0.8 35.7c0 0-34.4 26-34.2 26.2 10.4 14.3 16.2 18.8 30.3 30.3 12.5 10.1 26 15.9 42.2 24.4 0 0 0 0 0 0l50.9-15.7 31.2 15.1 73.6-7.5-1.1-35.1 18.7-11.9-18.2-8.9-41 12.1-45-40.9 44.9 32.1 40.9-17.9 32.4 4-11.7-43.6 50.5-18.8-6-43 10.2-28.9-20.4-22.2-38 1.4-27.4-23.5 29.6 19.3 39.3-5 28 26.4 70.3 2.1-30.2-25-14.5-37.2-38.3-5.6 40.7 0.9 20.7 35.7 32.1 22.7-3.7-83.5 34.3-25.7 5.6-29-8.5-39.2-46.5 0.4-12.5 55-60.8 31.1 43-43-7.3-64.4 80.4-19.8c0 0 0-1-0.3-1.3-8.7-10.7-17.9-20.8-28.9-29.7-38.8-31.4-86.2-46.6-135.4-46.9-82.2-0.5-169.6 40.4-231.6 117zm324.9-12.6l4 60.2-28.6 25.7 35.3-21.8 9-58.9 56.7-1.7 0.3 0.1 28-6.4-26.8-15.5zm108.2 55.2l-16.8 40.4-36.5 22 0.9 72.9 16.9 24.4 2.4-86.4 31.1-8.4 29.5-48.6-6.8-32.6-26.4-15.9zm-119.5 161l63.6 7.2-9.4-14.2-63.4-5.4zm-36 14.2l13.3 47-49.9 23.5 11.4 35.3 23.3 18.9-14.1-44.2 49.5-21.8-13.7-43.8 3.4-14.6-17.7-21.1zm-280.2 19.3l-7.1 65.5-49.4 19.7 14.1 9.3 46.6-18.6 3.6-67.9 73.6-40.5 21.1-0.8-24.7-5.1zm221.4 124.9l2.5 39.6-90.6 14.5-35.3-12.1-53.5 20.2-23.3-11.4c6.6 5.8 14.4 11.1 18.6 13.9 8.9 5.9 18 10.1 19.3 10.9l44.7-19.3 26.9 8.8 3.6-0.4 111.9-11.9-3.9-45.4 18.2-4.6-20.6-13.7z"/>
	</g>
	<g id="Layer-6">
		<path id="Layer" class="s5" d="m555.7 2101.2l-95.7 172 0.5 3.8 96.3-172z"/>
		<path id="Layer" class="s5" d="m452.9 2283.5l-117.1 26 0.8 2.6 116.8-26.1z"/>
		<path id="Layer" class="s4" d="m444.7 2270l-108.8 23.7-1.3 11.1 64.2-13.9 53.6-11.6 101.4-183.9-10.3-3.1z"/>
	</g>
	<g id="Layer-8">
		<path id="Layer" class="s4" d="m440.4 2082.8l-20.8 43.1 6.3 2.2 20.8-43.8z"/>
		<path id="Layer" class="s4" d="m464.8 2091.1l-20.8 43.1 6.3 2.2 20.9-43.8z"/>
		<path id="Layer" class="s4" d="m349.1 2134.4l-19.1 40.7 5.7 1.9 19.5-41.7z"/>
		<path id="Layer" class="s4" d="m530.1 2074.8l-22.2 45.1 5.5 1.4 22.7-44.9z"/>
		<path id="Layer" class="s4" d="m539.5 2086.2l9.4 3.1c0 0 14-5.1 18.3 5.9 2.9 7.5-4.8 10.1-4.8 10.1l-4.4 8.6c0 0 6.7 0.3 12.5-5.6 5.9-5.9 5.1-17.1-1.1-22.2-13.8-11.5-29.9 0.1-29.9 0.1z"/>
		<path id="Layer" class="s4" d="m552.6 2125.6l-3.8 7.1 8.4 2.9 3.5-7.2z"/>
		<path id="Layer" fill-rule="evenodd" class="s4" d="m378.8 2142.7c8.8 4.8 10.5 18.7 3.7 30.9-6.8 12.2-19.3 18.2-28.1 13.4-8.8-4.9-10.4-18.7-3.7-30.9 5.1-9.2 13.5-14.9 21-15.1 2.5 0 5 0.5 7.1 1.7zm-23.2 16.1c-4.8 8.7-3.9 18.3 2.1 21.6 5.9 3.2 14.5-1.1 19.3-9.7 4.7-8.6 3.8-18.3-2.1-21.5-1.5-0.9-3.2-1.2-4.9-1.1-5.1 0.2-10.9 4.3-14.4 10.7z"/>
		<path id="Layer" fill-rule="evenodd" class="s4" d="m302.3 2220.7c7.2 3.4 10.4 14.1 6.9 22.9-2.1 5.4-4 10-6.7 13-4.4 4.8-12.7 6.9-19.7 4.6-3.6-1.1-7.9-4.8-9.5-7.6-3-5.4-3.3-11.1-3.3-11.1l5.8 2.3c0 0 2.2 11.7 12.3 12.2 13.1 0.6 14.1-10.9 14.1-10.9-2.6 1.8-14 2.1-20.1-3.2-2.3-2-7.6-8.1-4.3-16.8 1.4-3.7 7.5-8.5 15.5-8.3 2.7 0.1 6 1.5 9 2.9zm-19.7 7.9c-1.6 4.6 2 10.1 8.1 12.3 6.1 2.2 12.4 0.2 14-4.4 1.6-4.6-2-10.1-8.1-12.3-1.5-0.5-3.1-0.8-4.5-0.9-4.5-0.1-8.3 1.9-9.5 5.3z"/>
		<path id="Layer" fill-rule="evenodd" class="s4" d="m281.6 2313.8c6.4 3.9 9.5 8.6 8.2 14.5-1.5 6.6-8.5 7.9-8.5 7.9 0 0 5.4 7.3 0.8 13.9-5.1 7.3-17.4 6.4-24.2 1.2-6.8-5.2-9.7-12.8-6.4-18.2 3.2-5.1 10.5-5.5 10.5-5.5 0 0-3.3-6.2 1.3-12.2 1.6-2.1 4.3-3.7 7.6-4.2 3.3-0.5 6.8 0.2 10.7 2.6zm-0.4 22.4q0.1 0 0 0zm-15.4-16.5c-1.7 3.9 1.2 8.9 6.5 11.2 5.3 2.3 11 0.9 12.7-3 1.7-3.9-1.2-8.9-6.5-11.2q-2-0.9-4-1.1c-3.9-0.4-7.4 1.1-8.7 4.1zm-10 16.5c-1.8 4.2 1.7 9.8 7.9 12.6 6.3 2.7 12.9 1.6 14.7-2.6 1.9-4.2-1.7-9.8-8-12.5-1.5-0.7-3.1-1.2-4.6-1.4-4.6-0.6-8.6 0.8-10 3.9z"/>
		<path id="Layer" class="s4" d="m304.9 2406.7l8.9 4.8-2.1 5.5-6.7 0.5z"/>
		<path id="Layer" fill-rule="evenodd" class="s4" d="m357.1 2463.2c17.4 2.3 17 22.6 17 22.6l-5.6-3.2c0 0 0.1-7.5-6-11.6-1.2-0.8-5.3-4.5-12.7-2.4-8 2.3-10 10.4-10 10.4 0 0 7.2-2.3 12.9 0 4.5 1.8 11.3 6.7 13.7 13.8 2.1 6.3-3 14-10 15.6-7.6 1.7-16.7-2.6-21.5-8.1-6.6-7.8-2.1-21.3 1.2-26.3 1.4-2.2 6.8-10.1 16.6-10.9q2.1-0.2 4.4 0.1zm-19.4 23.5c-2.7 4.5 0.2 11.1 6.5 14.7 6.2 3.7 13.4 3.1 16-1.4 2.7-4.5-0.2-11.1-6.5-14.8-3.1-1.8-6.4-2.6-9.4-2.3-2.9 0.3-5.3 1.5-6.6 3.8z"/>
		<path id="Layer" class="s4" d="m424.7 2498.6l5.1 2.4c0 0-2.1 11.6 10 15.6 7.4 2.5 15.3 0.5 16.2-6.5 0.7-5-2.8-9.4-9.7-12.4-5.8-2.5-12.1-1.1-12.1-1.1l-3.6-3.8 4.8-6.8 14.5 12.4 7.5-1c0 0 6.7 7.4 4.7 15.1-0.9 3.4-3.7 9.5-11 11-5.5 1-12.8-0.9-15.6-2.1-15-6.4-10.8-22.8-10.8-22.8z"/>
		<path id="Layer" class="s4" d="m442.4 2474.4l9.9 7.2 3.9-2-12.9-6.1z"/>
		<path id="Layer" class="s4" d="m618.4 2278.5c0 0 3.5-6.4 9.7-10 6.2-3.6 14.8-4 14.8-4l0.1 6.5c0 0-4.8 0.1-7.7 1.2-2.9 1.1-5 3.7-5 3.7l12.6 4.5 0.3 6.8z"/>
		<path id="Layer" class="s4" d="m643 2239.8v10.2l-8.1-4.1c0 0 1.6-2 3.5-3.5 1.9-1.6 4.6-2.6 4.6-2.6z"/>
	</g>
	<g id="Layer-11">
		<path id="Layer" class="s6" d="m771.6 2254.1c0-0.3 0.3-0.7 0.1-0.7 0 0-1.6 1.7-2 2.2-1.1 1.2-2.3 2.3-3.5 3.4-2.8 2.5-5.1 5-7.1 8.1-1.1 1.7-2.4 3.3-2.9 5.3-0.6 2.1-0.3 4.5-0.3 6.6 0.2 7.4 1 14.9 2.6 22.1 0.4 1.8 1.4 3.5 2.2 5.1 2.1 4 3.8 8.9 7.3 11.8 1.3 1.1 1.5 2.5 3.4 2.5 1.7 0 5.5-3.4 6.7-4.6 4.4-4.6 9.4-7.9 12.8-13.3"/>
		<path id="Layer" class="s6" d="m737.9 2352.2c-1.2-0.6-6 5.7-7.4 7-2.6 2.4-7 7.4-7.4 11.2-0.3 4.2 4.6 12.2 6.5 15.8 1.9 3.3 5 6.5 7.7 9.2 3.2 3.2 2.8 6.7 7.6 8.6 2 0.8 4 0.5 6.1 0.8 1.4 0.2 2 1 3.1 1.7 1.4 0.8 3.1 1 4.5 2 0.7 0.6 0.8 1.4 1.4 2.2 2.3 3.3 2.1 7.1 3.3 10.8 0.6 2 1.8 4.8 3.2 6.4 0.3 0.4 0.8 0.5 1 1 0.2 0.7-0.1 1.6 0.2 2.3 0.4 1 0.9 2 1 3 1.3 7.7-6 11.1-11.7 14.7-1.8 1.1-3.4 3.1-4.8 4.6-1.8 1.8-3.2 4.1-4.9 6.1-2.1 2.6-4.3 5.3-6.3 8-1.8 2.4-2.6 5.5-3.7 8.2-2.9 6.8-4.9 13.2-4.4 20.7 0.2 2.5 0.3 5 0.4 7.4 0.2 2.9-1.2 6.5 1.6 8.6 1.1 0.8 6.5 0.4 7.6-0.3 0.8-0.5 1-2 1.8-2.5 1.2-0.9 3.1-1.8 3.4-3.6 0.4-1.7 0.9-3.4 1.3-5.1 0.3-1.4-0.3-3 0-4.3 0.3-1.3 0.9-2.6 1.5-3.7 0.5-1 0.5-2.1 0.8-3.1 0.9-2.7 1.9-5.3 2.8-8 0.5-1.4 1.7-7.4 2.8-8.2 1.3-0.9 3.1-1.6 4.2-2.8 0.9-0.9 0.9-2.4 1.8-3.3 2.1-2.1 4.4-4.3 6.6-6.5 1.1-1.1 3.2-1.5 4.3-2.7 1.3-1.2 2.3-3.1 3.4-4.5 1.3-2 4.2-3.3 5.8-4.9 1.3-1.3 2.4-2.7 4-3.8 0.6-0.5 1.4-0.4 2-0.9 0.9-0.7 1.3-2 2-2.9 0.4-0.5 2.1-1.5 2.1-2.1 0-0.3-1 0.4-1 0.4 0 0 1.1-1 1.7-1.4"/>
		<path id="Layer" class="s6" d="m720.9 2411.6c-1.1-0.3-3.4 3.4-3.6 4.6-0.1 0.4 0.5 1.2 0.5 1.8 0 1.3-0.3 3 0.1 4.2 0.4 1.1 0.7 2 0.7 3.2-0.1 1.9-0.4 4.4-1 6.2-0.4 1-1.1 2-1.1 3.1 0.1 1.1 1.3 5.1 2.2 5.5 3.4 1.3 9.1-1.6 10.5-4.8 0.8-1.8 1.3-4.1 1.2-6-0.1-2.6-1.2-5.2-1-7.9 0.1-1.5 1-2.7 1.3-4.2 0.4-1.5-0.4-5-1.7-6.2"/>
		<path id="Layer" class="s6" d="m671.3 2460.4c-0.8-0.2-2.6 2.1-3 2.4-1.5 1.7-2 3-2.5 5.1-0.3 1.1 2.4 5.8 2.8 7.4 0.2 1-0.2 2.2 0 3.3 0.3 3.5 1.1 6.1 3.4 8.7 0.8 1 2.3 3.4 4.1 3.1 1.9-0.4 3.5-6 4.7-7.3"/>
		<path id="Layer" class="s6" d="m640.3 2532c-0.8 0.7-1.9 2.4-2.3 3.2-2.9 4.9 0 6.9 2.4 10.7 2.2 3.4 4.5 7 7.8 9.4 1 0.7 1.8 1.6 2.7 2.3 2.3 1.6 6.4 2.1 8-0.7 0.6-1 1.1-2.3 1.5-3.4 0.9-3-0.7-6.1-0.4-9.2z"/>
		<path id="Layer" class="s7" d="m681.2 2510.4l-11.5 42.8 9.5-3.9 7.1-35.7z"/>
		<path id="Layer" class="s6" d="m562.7 2580.7c-0.9-0.9-2.3 1.4-2.5 1.6-1.7 1.9-3.3 4.1-4.8 6.1-2.7 3.7-6.3 7.4-7.2 12-0.3 1.3 0.2 2.1 0.4 3.4 0.2 1.2 0 2.4 0.1 3.6 0.6 5.3 3.1 10.1 4.9 15 0.6 1.8 0.6 3.7 1.4 5.3 0.5 1.1 1.5 1.9 2.1 2.9 1 1.5 2.2 5.2 4.4 5.6 5.5 1.1 12.1-5.5 16.6-7.7"/>
		<path id="Layer" class="s6" d="m468.2 2742.9c-0.2-0.3 0.1-0.8-0.2-1-0.3-0.2-1.2 0.8-2.2 2-2.2 2.5-4.2 5.3-5.7 8.3-1 2.1-1.5 4.2-2.2 6.4-2.1 5.8-5.5 7.8-5.9 14-0.2 3 1.9 9.1 3.4 11.9 3.3 6.3 7.6 11.9 11.8 17.6 2.2 3.1 4 6.6 6.3 9.7 2.1 2.8 4.7 5 6.7 7.9 1.9 2.6 5.2 9.9 9.4 8.7 2.1-0.5 3.3-3 4.9-4.2 5.4-3.9 7.9-11.1 13.5-14.7"/>
		<path id="Layer" class="s6" d="m488.3 2833.2c1.5 1 4.7 2.5 6.6 2.9 0.5 0.1-0.5-1.4 0-1.4 0.7 0.1 1.2 1 2.2 1 1.3-0.1 2.8-1.6 4.1-2 4.6-1.7 9.8-3.2 14.6-4.3 3.7-0.9 6.8-2.6 10.1-4.2 5.5-2.8 11.2-5.5 16.9-7.7 3.2-1.3 6.5-1.7 9.6-3 4.5-1.9 8.7-4 12.9-6.6 0.9-0.5 2.2-0.5 3.2-0.9 2.7-1 5.2-2.6 7.7-4 3.8-2.1 8.4-2.1 12.2-4.3 4.7-2.8 10.1-4.2 14.9-6.6 1.6-0.8 2.2-2.6 3.3-3.9 1.9-2.2 2.8-2.9 3.9-5.9 0.2-0.7 1.3-0.8 1.3-1.6-0.1-1.8-5.3 0.3-6.2 0.3-2.5 0.1-4.9-0.5-7.4-0.2-4.7 0.4-10.2 2.4-14.6 4-8.4 3.2-16.1 6.4-25.1 8.1-5.8 1.1-11.6 2.9-17.3 4.4-4.5 1.3-9.2 1.9-13.8 2.5-2.6 0.4-5.3 1.5-7.9 2"/>
		<path id="Layer" class="s6" d="m633.5 2792c0.1 0.5 0.9-0.4 1.2-0.8 1.2-1.4 2.4-3.1 3.3-4.8 1.8-3.4 2.3-11.3 1.6-15-1.5-7.3-2.1-14.6-3.3-22-0.4-2.2-2.2-3.5-2.6-5.7-0.5-2.3-0.2-4.7-0.2-7-0.1-3.6-0.4-7.2-0.4-10.8 0.1-2.4 0.2-7 1.6-9.1 1.4-1.9 3.2-3.7 4.3-5.7 2.2-3.9 3.7-8.1 5.8-11.8 0.5-0.9 0.9-1.9 1.5-2.6 0.8-1 1.8-1.4 2.2-2.7 0.3-1 0.3-2.7-1-2.8-2.7-0.3-4.2 2.6-6 4-1.7 1.4-3.9 2-5.7 3.2-1.4 1-2.1 3-3.4 4-0.7 0.5-1.6 0.6-2.4 1-2.1 1.2-6.4 4.1-7.6 6-0.4 0.8-0.2 1.9-0.5 2.8-0.3 1-1 2.2-1.5 3-0.4 0.7-0.3 1.7-0.4 2.4-0.5 2.9-0.7 5.8-1.2 8.7-1 7.5-3.6 15.1-3.1 22.8 0.2 3.8 1.2 7.9 2.5 11.6 0.3 0.9 0.8 1.8 0.9 2.8 0.5 3.6 0.8 7.4 1.2 11 0.1 1.4 0.8 2.7 0.9 4.1 0.3 3.2-0.8 6.3-0.7 9.5 0 1.4 0.5 3.2 0.3 4.6-0.1 0.4-0.4 0.6-0.3 1"/>
		<path id="Layer" class="s6" d="m534.5 2887.4c2.7 1.6 3.3 6 5.4 8.4 1.6 1.9 3.7 2.6 5.7 4 3.1 2.3 5.9 4.9 9 7.2 10 7 21.4 11.8 32.5 16.4 5.2 2.3 10.4 6.3 15.3 9.2 5.6 3.4 9.2 8.2 14.3 12 8.8 6.7 20.1 9.1 29.9 13.8 15.7 7.6 31.6 17.7 48.4 22.6 16.7 4.9 33.8 7.9 51.1 8.6 5.3 0.2 10.7 1.5 15.9 1.4 2.2-0.1 4.5-0.7 6.8-0.6 16.1 0.5 32.3 0.8 48.5 0 4.2-0.2 8.9 0.4 13-0.3 12.8-2.2 25.6-4.7 38.2-7.8 5.8-1.5 12.2-2 17.9-3.8 14.9-4.9 29.6-10 44.4-15.2 5.7-2 11.8-3.1 17.5-5.1 4.8-1.7 9-4.8 13.5-7 7.8-4.1 16.8-6.3 24.4-10.9 4.6-2.8 8.6-6.6 13.2-9.5 5.2-3.3 10.6-5.1 16.2-7.7 8.7-4.1 16.4-10.6 24.7-15.3 21.9-12.3 36.4-32.9 51.4-52.1 2.9-3.7 5-8.2 7.8-12.1 7.8-10.5 16.4-20.3 24.6-30.4 5.2-6.5 9.1-14.4 13.4-21.5 5-8.4 12.8-18.4 16.3-27.3 2.3-5.8 4.4-11.7 6.5-17.6 1-2.7 3.6-4.9 4.6-7.7 2.4-6.8 6.2-13.3 8.6-20.3 2.7-7.5 5-15.3 8-23 1.1-2.9 3.4-6.8 3.6-10 0.4-4.3 0.9-8.4 1.9-12.7 1.5-6.8 5.8-13.4 5.8-20.3-0.1-2.2-5.1-6-7.2-5.5-10 2.5-14.3 29.1-17.3 37.7-1.8 4.9-5.2 9.5-8.2 13.7-4.7 6.5-9.4 14.6-13 21.7-2.7 5.4-4.9 11-7.5 16.4-3.6 7.5-8.3 14.4-11.8 21.8-2.6 5.4-7.5 10.2-9.5 15.8-1.1 3.1-2.4 5.5-4 8.6-0.7 1.6-0.9 3.8-1.9 5.2-5.1 6.7-9.9 13.5-14.9 20.1-4.2 5.5-10.6 9.3-14.7 14.9-5.2 7-11 15.4-17.4 21.4-3.9 3.6-8.8 6-13 9.1-7 5.2-12.5 12.2-20 17-12.2 7.8-25.9 13.4-38.1 21.2-4.3 2.7-10.4 7.7-15.2 8.9-2.2 0.5-4.9 0.6-7.2 1.4-4.9 1.8-8 5.9-12.4 8.2-4 2.2-8.3 4.6-12.5 6.4-14.6 6.4-30.9 9.7-46.5 12.8-11.9 2.4-23.5 6.6-35.6 8.3-6.7 0.9-13.9-0.6-20.7-0.2-3.5 0.1-7.2 1.2-10.8 1.6-8.8 0.9-18.4 0.9-27.2 1.1-4.8 0-9.7-1.1-14.4-1.1-9.4 0-19.2-0.2-28.4-1.9-3.5-0.7-6.9-1.7-10.3-2.1-6.6-0.8-12.7-2.5-19.1-3.9-1.9-0.4-4.2-0.1-6-0.7-6.5-2.3-13.7-3.5-20-6.2-7.7-3.2-12.8-10-20.7-12.9-9-3.3-18.6-4-27.5-7.2-6.9-2.4-13.4-6.1-20.1-9.1-5.5-2.4-9.6-7-15.1-9.6-7.1-3.3-14.3-6.2-21.5-9.4-3.5-1.5-6.7-4.5-10-6.5q-12.6-7.6-25.2-15.1c-3.6-2.1-4.6-6-7.6-8.6-2.4-2.1-7.2-5-10.2-6.1-2.5-0.9-7.2 4.3-9.1 5.6-3.2 2-5.4 4.6-7.9 7.4-1.1 1.2-2.9 1.5-4 2.8-3.8 4.5-8.7 8.8-11.8 13.8"/>
		<path id="Layer" class="s6" d="m1051.4 2382.1c0-0.1 0.3-0.2 0.2-0.2-0.7 0.7-1.5 1.4-2.2 2-1.8 1.7-3.5 3.1-5.2 5-4.3 4.7-7.5 10.2-11.8 14.9-4.1 4.5-7 9.8-10.5 14.7-5.9 8-11.4 16.2-17 24.4-1.5 2.2-3.4 4.2-4.9 6.4-2.8 4.3-7.9 8.4-6.2 14.1 0.1 0.5 0.6 2.5 0.9 2.7 0.7 0.6 4.6-0.7 5.2-1.3 1-1.1 1.6-2.4 2.5-3.6 1-1.3 2.2-2.3 3.2-3.5 2-2.3 3.6-5.1 5.6-7.5 4.3-5.1 9.6-9.1 14.5-13.7 4-3.8 6.9-8.6 10.3-12.9 2.5-3.2 5.6-5.8 8-9.1 3.7-5 7.3-10.3 9.8-16"/>
		<path id="Layer" class="s6" d="m1084.6 2309.6c-1.5-0.5-5 3.5-6.2 4.6-3.7 3.6-7.2 7.2-9.8 11.8-0.6 1.1 0.2 1.6 0 2.7-0.6 4.7-1.9 8.9-2.2 13.7-0.3 3.9-1.2 7.9-1.1 11.8 0.1 12.1 1.5 24.2 1.4 36.3 0 2.5-0.2 4.9-0.2 7.4 0.2 3.2 0.8 6.4 0.9 9.6 0 1.6-0.6 5.8 1.7 6.4 3 0.9 2.7-1.9 3.6-3.7 0.5-1.1 1.3-0.8 1.9-1.5 1-1.1 1.5-2.8 2.6-3.8 0.5-0.4 1-0.2 1.5-0.4 0.6-0.2 0.8-1.2 1.2-1.6 0.3-0.2 0.7-0.1 1-0.4 1.3-1 2-2.9 2.7-4.4 0.6-1 1.7-1.6 2.4-2.5 0.2-0.3 0.1-1.6 0.1-1.9 0.2-3 0.2-6 0.2-8.9-0.1-2.5-0.4-5-0.2-7.5 1-12.1 1.9-24.3 3.3-36.3 0.7-5.2 1.6-10.8 1.2-16-0.1-2-0.7-3.1-0.4-5.2 0.3-2.3-0.7-3.7-0.6-5.8 0-1 0.1-1.5-0.1-2.4 0-0.3-0.4-0.9-0.6-0.4"/>
		<path id="Layer" class="s6" d="m1010.6 2476.7c-1.2 0.4-1.9 2-2.6 3-1.7 2.6-4.5 5.8-3.8 9 1 5.2 4.7 9.4 6.9 14.1 1.7 3.9 2.4 8.1 3.7 12.1 0.5 1.5 1.4 2.1 2 3.4 1.5 3 2.4 6.4 3.7 9.5 1.6 4.1 3.4 7.8 5.3 11.7 0.2 0.4 1.5 4 1.6 4 0.3 0.2 0.3-1.5 0.3-1.6-0.3-2-0.8-4-1.1-6-0.8-5.4-1.9-10.8-2.2-16.2-0.3-5 0-10.1-0.8-15.1-0.6-3.3-1.9-6.5-2.3-9.8-0.5-4-0.7-8-1.1-11.9-0.1-1.3 0.2-2.6 0-3.8-0.1-1.2-0.2-2.5-0.5-3.6-0.4-1.4-1.5-2.9-1.3-4.4"/>
	</g>
	<g id="Layer-13">
		<path id="Layer" class="s3" d="m850.1 2201.7l-56.8 52.3 20.8 53.8-51.2 48.6-15.1-4.6 48.5-48.7-21.1-52.3 55.8-49.2z"/>
		<path id="Layer" class="s3" d="m764.3 2358l46.9 80.5-43.6 39.5-7.9 20.8 0.1 18.6-11.1-4.3 0.8-15.9 5.9-21.3 40.2-34.4-46-80.3z"/>
		<path id="Layer" class="s3" d="m699.5 2514.2l-5 45.8-64.6 23.9-35-14.7-7.3 9.9-14.6-7.6 16.4-20.5 44.3 13.9 47.6-13.5 6.2-39.2z"/>
		<path id="Layer" class="s3" d="m589.1 2583.4l24.2 54.2-102 43.5-10.8 43.2 40.3 67-21.4 4-41.6-71.4 21.1-57 86.5-37.5c0 0-17.8-44.7-16.2-46.2 1.6-1.5 19.9 0.2 19.9 0.2z"/>
	</g>
	<g id="Layer-9">
		<path id="Layer" fill-rule="evenodd" class="s4" d="m969.9 2215.6c20.3 9.2 28.5 13.5 43.6 23.5q0.1 0 0.1 0l43 133.9v0.1l1.3 26-57.7 72.9 5.2 14.7 21.4 54.1-9.7-66.4-11.7 12.3-3.5-10.1 58.7-61.9 1.5-95.5 23.2-21.6c0 0-0.5-0.7 0.1-0.1 30.5 29.1 54.4 63.7 72 101.3 0-0.2-0.2-1.1-0.1-0.7 45 85.5 71.8 224 14.2 352.6-58.1 129.7-147.1 179.1-180.4 198.4-108.9 63.2-217.5 54.8-259.5 47-118.6-22-206-97.7-223.4-120.9q0-0.1 0-0.1l28.3-32.2 21.5-24.7 60.3-25-1-22.1-1.2 5.7-9.4 16.8-118.1 50.1c0 0-16.6-15.3-28.8-34.4-11.7-18.1-18.5-37.7-18.5-37.7l49.1-115.5 59.8-22.6-10.8-33.2 19.7-25.1 0.1 0.1-0.1-0.1 28.7-36.4 44.8 21 14.1-4-15.9-13.6 13-42.4 24.7-0.7 1-2.2-10.6-31.1 29.2-32.1 23.1 9.3 2.5-1.5 0.8-35.9 19.9-1.7-23-39.4 19.8-17.7h-0.1l31.7-28.5-16.9-48 19.2-23 70.9-64.3c0 0-0.6-0.1 0.2-0.1 36.8 1 87.9 12 133.7 32.7zm43.7 23.5c0 0 0.3 0.2 0 0zm-185.2-30.4c0 0-0.5 0-0.1 0zm0 0.1l-47.2 41.7 22.4 55.7-47.7 44 29.1 3.9 23.1 42 55 2.3-59 3.2-25.3-37.3-22.2-0.4 43.4 76-40.9 36.8-6.6 20.1-1.1 15.3 24.5 7.2 14.8 21-17.4-18.3-50.7-7.3-32.9 0.6-4.3 38.1-55.5 20.3-38.3-16.5-11.7 14.4 22.7 5.8 23.2 33.6 51.8 3-55.1 3.8-29.6-30-12.4-1.5 20.2 46.6-96.9 41.7-15 51.4c-0.2-0.5 0 0 0 0 10 20.7 22.1 40.4 36 58.9 0.1 0.2 0 0 0 0l80.5-15 10.7-60.9 45.6-33.2-23.6 46.5 9.3 69.9-82.1 38c29 26.5 61.4 49.2 98.9 66.1 181.1 81.9 390.7-0.2 472.6-181.3 57-126.1 36-272.6-42-367.4l-2.7 51.6-68.9 69.5 10.1 93.2-46.4-100.9 58.8-87-31.9-104c-16.5-11.1-34.2-21.1-53-29.6-42.3-19.1-88.5-29.4-132.2-31.6q0 0-0.1 0zm-72 63.6l16.3 43.3 15.6-15.5-18.9-42.7zm315 51.6l-1.9 86.5 15-15.3 1.2-84.1v-0.2zm-347.2 42.3l19.9 35.5 13.6-0.1 22.6 41.6-19.1 6-24.6 30.7-0.2 29 7.9-0.1 8.4-33.6 37.4-37.3-53.6-82.5zm271.6 94.9l1.6 3.3 51.3-66.7-0.1-9.6zm-257.4-48.7l-0.5 27.5-27.8 15-19.1-9-10.5 12 8.8 25.2-15.4 26.6-22.1-0.8-5.1 16.5 20.6 15.7v9.8l10.2-3.1 7.1-32.5-4.9 0.1 0.9-6.8 8.9-0.3c0 0 9.9-27.1 30.8-46 19.1-17.3 44.9-23.9 44.9-23.9l-13.6-26.7zm-9.8 2.6l-8.2 0.1-0.6 23 9-3.9 0.1-19.3zm-62.3 53.5l7.1 20.6 5.5-7.5-7.9-18.6zm46.5 17.4c-8.1 11.6-12.8 23.2-12.8 23.2l26 0.1 0.1-32.5 10.2-13.4c0 0-15.6 11.2-23.5 22.6zm-74.5 54.4l18.6 13.9 0.4-8.2-16.2-12.4zm-88.4 60l9.3 28.8 14.5-5.2-12.1-37.7zm611.1 127.2c-82.1 181.6-284 270.4-469.6 210.4-13.8-4.5-27.5-9.7-41-15.8-40.5-18.4-76.8-44.1-108.2-72.7l-18 21.1c72 75.7 200.5 133.6 323 112.9 112.7-19 171-69.1 188-80 40.5-26.1 90.1-90.3 110.2-130 35.8-70.5 38.7-115.4 38.7-115.4-5.4 24.1-13.2 47.4-23.1 69.5zm-537-13.1l-3.9 30.9 3.7 45.7 11.3-4.7-4.3-65.6 15.9-27.3zm-170.3 57.9c0 0 5.8 15 14.3 28.5 8.4 13.4 19.5 25.2 19.5 25.2l15.8-20.4c0 0 0.2 0.2 0.1 0-15.1-20-25.3-35-36.3-57.3-0.2-0.5-13.4 24-13.4 24zm63.7 37.7l-20.4 23.6 0.6-2.9-0.7 3 0.1-0.1 105.4-43.3 5.5-8.5z"/>
		<path id="Layer" class="s8" d=""/>
	</g>
	<g id="Layer-12">
		<path id="Layer" class="s7" d="m799.4 2563.6l-0.9 3.2 181.4 20.2v-3.7z"/>
		<path id="Layer" class="s4" d="m989.9 2323.7l-197.4 231.5 189.6 19.8 1.7-8.5-154.9-25.5 168.2-211.7z"/>
		<path id="Layer" class="s4" d="m816.9 2409.3l6.9 14.4 18.2 2 17.2-9.1 17.7 11.8-17.1-3.8-14.5 13.8-27.8-8.7z"/>
		<path id="Layer" class="s4" d="m827.6 2243l15.5 1.4-0.3 2.7-4.3-0.3 2.9 23 9.7-21.6-5.9-0.6 0.3-2.2 14.6 1.5-0.2 2.4-5.7-0.6-11.8 26.1 4.1 35.2 4.2 0.5-0.1 2.6-14.7-1.6 0.2-2.6 4.3 0.4-3.1-23.5-9.5 21.6 6.1 0.6-0.1 2.4-16.5-1.7 0.1-2.2 7.1 0.5 12.1-26.2-4.7-34.6-4.5-0.4z"/>
		<path id="Layer" class="s4" d="m860.3 2461.1c0 0-8.7-10.1-19.5-13-10.7-2.9-23.7 1.8-23.7 1.8 0 0 12.4-1.3 23.2 1.6 10.7 2.9 20 9.6 20 9.6z"/>
		<path id="Layer" class="s4" d="m889.6 2478.7c0 0 13.9 6 20.2 16.5 6.3 10.5 4.9 26.5 4.9 26.5 0 0-2.2-13.1-8.5-23.8-6.3-10.7-16.6-19.2-16.6-19.2z"/>
		<path id="Layer" class="s4" d="m916.5 2458.3l22.6 9.2-5.5 20.6 6.3 12.9 18.1 8.5-3.3 26.7-4.6-20.9-21.2-6.4-9.5-20.5 9.8-17.9z"/>
		<path id="Layer" class="s4" d="m942.6 2630l-21.7-6.5-17.4 17.9 3.3 22.3-14.5 11.1-16.6-12.4-24.8 11.4-6.1 23.4-18.3 1.9-11.5-15.4-23.5-1-14.8 17.5-19.9-6.7-2.7-20.1-22.4-11.4-20.5 9.4-16.7-14.9 14.1 24.6 23.7-5.8 11.5 6.1 2.8 21.1 33.3 11.5 16.8-18.6 11.3 0.4 14.4 17.5 33-6 6.3-23.3 12.7-6.4 19.2 14.1 27.2-22.4-3.4-24.9 7.2-12.3z"/>
		<path id="Layer" class="s4" d="m852.2 2649.7l-23.7-26.6-34.1 11.7-23.5-6.9-13.4-32.1-47.5 1.8-9.2 33.2-26.9 8.9-32.3-18.8-25.5 37.7 18.7 18.3-9.4-18.6 20.7-20.4 26.7 16.4 39.1-13.6 8.1-30.5 29-1.1 11.9 29 35 11 31.5-16.4z"/>
		<path id="Layer" class="s4" d="m836.5 2658.8c0 0-24.2 9.3-56.1 2.9-30.4-6.2-46.2-23.9-46.2-23.9 0 0 15.1 26 48.8 31 36.3 5.4 53.5-10 53.5-10z"/>
		<path id="Layer" class="s4" d="m921.9 2676.9l15.9 9.3 11.4-11.9 23.7 1.9 9.9 17.8 15.8-2.2 3.5-20.5 21.7-10 17.4 8.6 10.7-11.6-8.6-16 19.2 15.3-18.2 29.6-21.1-12.1-9.8 5.1-2.7 22.1-34.4 5.8-11.3-19.7-12.7-0.5-14.5 7.1z"/>
		<path id="Layer" class="s4" d="m1024.4 2626.6c0 0-12.5 20.6-36.2 26.6-26.6 6.7-45.9-6.6-45.9-6.6 0 0 22.6 19.5 47.5 13.5 24.1-5.7 34.6-33.5 34.6-33.5z"/>
		<path id="Layer" class="s4" d="m862.9 2247.7l13.1 1.5-0.4 2.9-3.9-0.5-9.1 60.6 4.2 0.5-0.1 2.7-14.2-1.6 0.3-2.9 3.7 0.3 9.3-60.3-3.3-0.7z"/>
		<path id="Layer" class="s4" d="m976.3 2292.3l11.6 10.2-1.6 1.9-3.4-3-19.8 47.3-10.2 12.1-5.4-4.9 1.6-1.9 3.4 3.1 25.8-59.3-3.8-3.6z"/>
		<path id="Layer" class="s4" d="m990.2 2304.5l-1.6 1.7 4.5 3.8-15.8 11.1-36.7 25.7-4.9-4.1-1.6 1.8 11.8 10.1 1.4-1.8-4.7-4.2 52.9-36.6 4.3 3.6 1.5-1.9z"/>
		<path id="Layer" class="s4" d="m1002.8 2314.9l-1.6 1.9 3.2 2.7-5.3 6.1 4.1 3.4 5.2-6.2 3.3 2.8 1.7-1.9z"/>
		<path id="Layer" class="s4" d="m1014.8 2324.6l-1.5 2 2.7 2.2-38.8 47.8-3.3-2.8-1.9 2 11.5 9.9 1.8-2.1-3.7-3 39.1-47.9 3.6 2.9 1.6-1.9z"/>
		<path id="Layer" class="s4" d="m1095.6 2439.1l5.7 15.3-2.8 1.2-1.8-5.1-57.9 22.1 1.8 4.9-2.7 1.1-5.6-14.5 2.8-1 1.6 4 57.7-22.3-1.8-4.5z"/>
		<path id="Layer" class="s4" d="m1118.2 2596.8l-2.5-0.5-0.7 5.1-60.6-9.6 0.9-5.9-3.2-0.3-2.5 16.1 2.8 0.5 0.9-5 60.9 10-0.6 4.7 2.7 0.4z"/>
		<path id="Layer" class="s4" d="m1116.2 2613.6l-2.7-0.4-0.6 4-61.4-9.2 0.5-4.1-2.8-0.5-1.9 14.5 2.6 0.3 0.6-4.6 35.1 5.2 26.3 3.9-0.5 5.2 2.9 0.5z"/>
		<path id="Layer" class="s4" d="m1062.7 2747.3l-2.3-2.1-3.5 3.8-47.4-39.1 3.2-4-2.3-1.7-9.8 12.1 2.3 1.7 2.6-3.4 47.7 38.7-3 3.7 2.5 2.3z"/>
		<path id="Layer" class="s4" d="m1052.2 2759.7l-2.3-2.2-3.5 3.8-47.4-39.1 3.2-4-2.3-1.7-9.8 12.1 2.3 1.7 2.6-3.4 47.7 38.7-3 3.7 2.5 2.3z"/>
		<path id="Layer" class="s4" d="m1041.9 2772.1l-2.4-2.1-3.5 3.8-47.4-39.1 3.2-4-2.3-1.8-9.8 12.1 2.3 1.7 2.6-3.4 47.7 38.7-3 3.8 2.5 2.2z"/>
		<path id="Layer" class="s4" d="m943.7 2849.8l-1-3.1-4.9 1.7-22.3-57.3 4.7-1.9-1.2-2.7-14.4 5.8 1.2 2.6 3.9-1.7 22.8 57.1-4.5 1.7 1.1 3.2z"/>
		<path id="Layer" class="s8" d="m925.3 2856.4l-14 5.7-1-2.5 4.4-1.7-27-39.4 6.7 47.4 6.1-2.3 0.9 2.6-14.7 5.5-0.8-2.5 5.5-2.1-9-66.7 37.5 55.2 4.4-1.6z"/>
		<path id="Layer" class="s8" d="m769.7 2882.3l-14.9-2 0.3-2.7 4.7 0.7-4-47.5-17.6 44.5 6.5 1-0.5 2.7-15.6-2.4 0.5-2.6 5.9 0.9 25.1-62.5 5.4 66.6 4.6 0.7z"/>
		<path id="Layer" class="s4" d="m619.1 2828.8l-12-8.9 1.5-2.3 3.8 2.9 4.1-9.6 8-3.9-7.4 16.8 3.6 2.8z"/>
		<path id="Layer" class="s4" d="m512.4 2710.5l-5-12 0.7-2.5 1.1-0.5 1.7 4.5 39.2-27.2-20.1 2.9 11.1-4.9 27.1-3.5-55 37.9 1.6 4.3z"/>
		<path id="Layer" class="s4" d="m769.7 2882.3l-14.9-2 0.3-2.7 4.7 0.7-4-47.5-17.6 44.5 6.5 1-0.5 2.7-15.6-2.4 0.5-2.6 5.9 0.9 25.1-62.5 5.4 66.6 4.6 0.7z"/>
		<path id="Layer" class="s4" d="m925.3 2856.4l-14 5.7-1-2.5 4.4-1.7-27-39.4 6.7 47.4 6.1-2.3 0.9 2.6-14.7 5.5-0.8-2.5 5.5-2.1-9-66.7 37.5 55.2 4.4-1.6z"/>
	</g>
	<g id="Layer-14">
		<path id="Layer" class="s9" d="m1368.1 2230.3c0 0-9.8-221.7 225.7-232.1 117.6-5.2 239.9 77.6 222.7 216.5-9.7 77.9-80.4 138.4-80.4 138.4l-163.4 155.1 257.3-0.2-0.5 114.6h-492.8l287.8-300.8c0 0 18.7-19.2 32.3-37.6 23.6-31.9 32.7-58.1 33.1-87.4 0.8-54.4-41.6-89.5-92.4-89.8-109.8-0.7-107.3 123.5-107.3 123.5z"/>
		<path id="Layer" class="s10" d=""/>
		<path id="Layer" fill-rule="evenodd" class="s11" d="m2124.3 2255.4c44 2.1 87.1 14.7 118.7 36.8 33.7 23.6 66.2 57.3 67 122.5 0.9 78.6-49.6 113.5-63.5 123.8-0.3 0.2-28.3 17.1-28.3 17.1 0 0 22 7 50.6 28.3 11.8 8.8 71.9 58 62.8 144.5-5.7 54-33 97.6-93.9 133.7-16.5 9.8-68.7 32.7-127.8 30-76.8-3.7-132.7-28.5-172.8-73-18-19.9-45.1-64.6-38.3-122.8 6.7-57.9 31.7-87.3 60.8-110.9 27.3-22.2 52.8-29.6 52.8-29.6l-26.5-15.9c0 0-67.1-38.8-66.4-124.6 0.4-48 20.9-86.6 51.7-112.4 37.5-31.7 86.6-46.2 133.3-47.7q10-0.3 19.7 0.2zm-87.1 174.2c1.3 43.8 34.2 77.4 78.5 76.5 49.3-1 75.2-34.7 76.7-78.5 1.6-45.3-30.9-80.2-79.8-78.8-40.6 1.1-76.9 29-75.4 80.8zm-16.4 269.4c0.3 56 46.7 93.1 95 90.6 66.4-3.6 91.5-43.4 92.9-92.9 1.3-48-35.7-93.1-95.7-92.8-51.6 0.3-92.5 41.4-92.2 95.1z"/>
	</g>
	<g id="Layer-2">
		<path id="Layer" class="s12" d="m1332.2 2195.7c0 0-9.8-221.8 225.7-232.1 117.6-5.2 239.8 77.6 222.7 216.5-9.7 77.9-80.4 138.4-80.4 138.4l-163.4 155.1 257.3-0.2-0.5 114.6h-492.8l287.8-300.8c0 0 18.7-19.3 32.3-37.6 23.6-31.9 32.7-58.1 33.1-87.4 0.8-54.4-41.7-89.5-92.5-89.8-109.7-0.7-107.3 123.5-107.3 123.5z"/>
		<path id="Layer" fill-rule="evenodd" class="s12" d="m2088.2 2219.8c44.1 2.2 87.1 14.8 118.7 36.9 33.7 23.5 66.2 57.3 67 122.5 0.9 78.6-49.6 113.5-63.5 123.8-0.3 0.2-28.2 17.1-28.2 17.1 0 0 21.9 7 50.5 28.3 11.8 8.8 72 58 62.8 144.5-5.7 54-32.9 97.6-93.9 133.7-16.5 9.7-68.7 32.7-127.8 29.9-76.8-3.6-132.7-28.5-172.8-72.9-18-19.9-45.1-64.6-38.3-122.8 6.8-57.9 31.7-87.4 60.8-111 27.3-22.2 52.8-29.6 52.8-29.6l-26.5-15.8c0 0-67-38.8-66.4-124.6 0.4-48 21-86.6 51.7-112.5 37.5-31.6 86.7-46.1 133.3-47.6q10-0.3 19.8 0.1zm-87.2 174.3c1.3 43.7 34.2 77.4 78.5 76.5 49.3-1 75.2-34.7 76.7-78.5 1.6-45.3-30.9-80.2-79.8-78.9-40.5 1.2-76.9 29.1-75.4 80.9zm-16.4 269.4c0.3 56 46.8 93.1 95 90.5 66.4-3.5 91.5-43.3 92.9-92.8 1.3-48-35.7-93.1-95.7-92.8-51.6 0.3-92.5 41.4-92.2 95.1z"/>
	</g>
	<g id="Layer-15">
		<path id="Layer" class="s12" d="m2307.7 2148.7l76.6 0.1-0.1 18.5h-27.9v85h-20.6v-85h-28z"/>
		<path id="Layer" class="s12" d="m2397.7 2148.7v103.6h20.6v-46h48.4v46h20.6v-103.6h-20.6v39h-48.4v-39z"/>
	</g>
	<g id="Layer-17">
		<path id="Layer" class="s9" d="m2723 1957.7l-33.8 18.9c0 0-16.6-32.1-45.8-27.8-16.7 2.5-20.6 11.4-22.1 17.3-3.1 12.9 13 24.1 17 26.8 11.3 7.4 45.1 12.6 66.1 32.7 19.3 18.3 19.3 37.6 19.4 42.4 0.4 17.3-3.8 37.4-25.2 52.6-16.5 11.7-35.5 15.7-47.9 15.5-65.5-0.8-86.5-54.8-86.5-54.8l30.7-22.1c0 0 9.9 19.1 24.9 30.9 8.2 6.4 26.8 10.7 41.2 7.1 13.1-3.3 22.6-18.8 16.2-35-7-17.9-43-24.6-63.8-35.9-16.7-9.1-28-19.1-34.3-39.3-9.8-30.9 9.3-64.1 46.6-72.5 71.4-16 97.3 43.2 97.3 43.2z"/>
		<path id="Layer" class="s9" d="m2774.1 1916.4l159.6 0.1v38.5h-58v176h-43.6v-176h-58z"/>
		<path id="Layer" class="s9" d="m2991.1 1916.5l43.6-0.1v142c0 0-2.2 41.2 41.7 40.3 37.1-0.8 35.8-41.4 35.8-41.4l-0.1-140.8h43.6v143.9c0 0 2.2 75-79.6 76.7-90.6 1.9-84.9-82.1-84.9-82.1z"/>
		<path id="Layer" fill-rule="evenodd" class="s9" d="m3407 1967.1c13.7 24.3 22 69.8 1.9 109.1-27.2 53.2-90.6 53.9-90.6 53.9l-82.2 0.9v-214.5l78.3-0.4c0 0 64.3 0.6 92.6 51zm-127-11.1v135.2l38.6-0.1c0 0 37.3-0.4 52-34.4 10.7-24.7 6.6-52.4-0.8-67.6-16.1-33.6-52.7-33.6-52.7-33.6z"/>
		<path id="Layer" class="s9" d="m3490.1 1916.5v214.5l41.6-17.6v-19.9-58.4h88v-36.6h-88v-45.4h94v-36.6z"/>
		<path id="Layer" class="s9" d="m3704.4 1905.7l0.3 95.3 65.4-34.1z"/>
		<path id="Layer" class="s13" d="m4033.8 2697.7h3.2l156.4 0.1v38.5h-58v176h-43.6v-176h-58z"/>
		<path id="Layer" class="s13" d="m3795.8 2687.3l-0.1 225h41.6v-134l153 143.4v-224l-41.6 0.1 0.1 133.8z"/>
		<path id="Layer" class="s13" d="m3103.8 2687.3v116.2l41.6 6.9v-32.1l47.1 44.1 105.9 15.9v-140.6h-41.6v133.9z"/>
		<path id="Layer" class="s13" d="m4609.8 2687.3l-0.1 225h41.6v-134l153.1 143.4-0.1-224-41.6 0.1 0.1 133.8z"/>
		<path id="Layer" class="s13" d="m4235.8 2697.7l-0.1 214.6h43.7v-214.6z"/>
		<path id="Layer" fill-rule="evenodd" class="s13" d="m4558.2 2799.5c3.5 56.5-39.3 114.6-105.2 117.9-57.5 2.8-120.1-29.6-121.4-112.9-1-66.8 53.4-111.3 109.8-110.9 56.5 0.4 112.2 31.7 116.8 105.9zm-180.9 4.7c0.7 53.2 38.1 73.8 72.3 72 39.3-2 64.9-39.1 62.8-75.2-2.8-47.3-36-67.3-69.7-67.6-33.6-0.2-66.1 28.2-65.4 70.8z"/>
		<path id="Layer" fill-rule="evenodd" class="s13" d="m3050.9 2787.8c0.5 3.7 1.6 10.1 1.6 10.1l-47.9-8.4c0.1-0.4 0.1-1.3-0.4-3.6-8.1-36.7-37.7-52.6-67.6-52.8-21.5-0.2-42.5 11.4-54.7 30.8-2.1 3.4 26.9 3.1 61.7 12.9 10.1 2.9 21 5.4 30.7 7.3l-142-24.9c0 0 1.9-0.8 3.9-4.9 18.5-38.1 58.2-61.3 99.1-61 53.5 0.4 106.3 28.5 115.6 94.5zm-46.6 1.8c0 0 0.2 0.2 0.3-0.1l-30.3-5.4c16.7 3.5 30 5.5 30 5.5z"/>
		<path id="Layer" class="s13" d="m3598.7 2697.7l0.1 188.8 109.9 25.8h25.7l-0.1-37.5h-93.9l-0.1-58.4 88.1-0.1v-36.5h-88l-0.1-45.5h94.1v-36.6z"/>
		<path id="Layer" class="s13" d="m3340.6 2697.7l50.6 0.1 58.2 141 57.5-141.1h50.6l-81.3 170.9-56.8-6.8z"/>
		<path id="Layer" class="s13" d="m2776.3 2747v-32.1c0 0-35-27.8-84.4-20.7-31.5 4.5-50.2 16.7-60.1 25.5-3.7 3.3 17.3 5.7 37.7 9.2 13.8 2.4 46.9 5.7 55.8 6.7 8.7 1 35.2 8.2 38.8 8.5 7.3 0.8 12.2 2.9 12.2 2.9z"/>
		<path id="Layer" class="s13" d="m2595.7 2786.1c0 0-14.6 76.7 48.3 112.4 76.1 43.3 129.9-2.8 129.9-2.8l-38.3-24.3c0 0-35.3 12.5-65.2-8.9-30.4-21.9-28.6-53.4-28.6-53.4z"/>
		<path id="Layer" class="s14" d="m4406.4 2348.8l-33.8 18.9c0 0-16.6-32.1-45.8-27.7-16.7 2.4-20.6 11.3-22.1 17.3-3.1 12.8 13 24 17 26.7 11.3 7.4 45.1 12.6 66.1 32.7 19.3 18.3 19.3 37.6 19.4 42.4 0.4 17.3-3.8 37.4-25.2 52.6-16.5 11.7-35.5 15.7-48 15.5-65.4-0.8-86.4-54.8-86.4-54.8l30.7-22.1c0 0 9.9 19.1 24.9 30.9 8.2 6.5 26.8 10.7 41.2 7.1 13.1-3.3 22.6-18.8 16.2-35-7-17.9-43-24.6-63.8-35.9-16.8-9.1-28-19.1-34.3-39.3-9.8-30.9 9.3-64.1 46.6-72.5 71.4-16 97.3 43.2 97.3 43.2z"/>
		<path id="Layer" fill-rule="evenodd" class="s14" d="m3588.7 2358.4c13.6 24.3 21.9 69.8 1.8 109.1-27.1 53.2-90.6 53.8-90.6 53.8l-82.2 0.9v-214.5l78.3-0.4c0 0 64.3 0.6 92.7 51.1zm-127.1-11.2v135.2h38.6c0 0 37.3-0.5 52-34.5 10.7-24.7 6.6-52.4-0.7-67.6-16.2-33.5-52.8-33.6-52.8-33.6z"/>
		<path id="Layer" class="s14" d="m2611.7 2307.6v214.6h128.6v-38.6h-85v-176z"/>
		<path id="Layer" class="s14" d="m2850.7 2307.6v214.5l135.7 0.1-0.1-37.5-94-0.1v-58.4h88v-36.5l-88-0.1v-45.4h94v-36.6z"/>
		<path id="Layer" class="s14" d="m3720.7 2307.7v214.5l135.7 0.1-0.1-37.6h-94v-58.4h88v-36.6h-88v-45.4h94v-36.6z"/>
		<path id="Layer" fill-rule="evenodd" class="s14" d="m3308.4 2522.1l-48.6 0.1-23-49h-73.6l-22.9 49h-48.8l108.8-227.1zm-135.1-83.5h53.2l-26.3-61.9z"/>
		<path id="Layer" fill-rule="evenodd" class="s14" d="m4136.3 2374.8c1.7 49.5-45.6 64.2-45.6 64.2l58.9 83.2h-51.7l-50.1-78h-19.5v78h-43.6v-214.6l78.4-0.1c0 0 70.8 0.3 73.2 67.3zm-108.6-31.1l-0.1 66.6h32.3c0 0 32.8-1.4 32.8-32.5 0-34.4-33.2-34.2-33.2-34.2z"/>
	</g>
	<g id="Layer-16">
		<path id="Layer" class="s12" d="m2737.7 1975l-33.9 18.8c0 0-16.6-32-45.8-27.7-16.6 2.5-20.6 11.4-22 17.3-3.2 12.8 12.9 24.1 16.9 26.7 11.4 7.4 45.1 12.6 66.2 32.7 19.2 18.4 19.2 37.6 19.3 42.5 0.4 17.3-3.8 37.4-25.2 52.6-16.5 11.7-35.5 15.7-47.9 15.5-65.5-0.8-86.5-54.8-86.5-54.8l30.8-22.1c0 0 9.8 19.1 24.8 30.8 8.2 6.5 26.8 10.7 41.2 7.1 13.1-3.2 22.6-18.8 16.2-34.9-7-17.9-43-24.7-63.8-36-16.7-9.1-27.9-19.1-34.3-39.2-9.8-30.9 9.4-64.1 46.7-72.5 71.3-16.1 97.3 43.2 97.3 43.2z"/>
		<path id="Layer" class="s12" d="m4385.4 2348.9l-33.8 18.9c0 0-16.6-32.1-45.8-27.8-16.6 2.5-20.6 11.4-22 17.3-3.2 12.8 12.9 24.1 16.9 26.7 11.4 7.5 45.1 12.7 66.2 32.7 19.2 18.4 19.2 37.6 19.3 42.5 0.4 17.3-3.8 37.4-25.2 52.6-16.5 11.7-35.5 15.7-47.9 15.5-65.5-0.8-86.5-54.8-86.5-54.8l30.7-22.1c0 0 9.9 19.1 24.9 30.9 8.2 6.4 26.8 10.7 41.2 7.1 13.1-3.3 22.6-18.8 16.2-35-7-17.9-43-24.7-63.8-36-16.7-9.1-27.9-19.1-34.3-39.2-9.8-30.9 9.3-64.1 46.6-72.5 71.4-16 97.3 43.2 97.3 43.2z"/>
		<path id="Layer" class="s12" d="m2788.7 1933.7h159.6v38.6h-58v176h-43.6v-176l-58-0.1z"/>
		<path id="Layer" class="s12" d="m4017.7 2681.7h3.3 156.3v38.6h-58v176h-43.6v-176h-58z"/>
		<path id="Layer" class="s10" d=""/>
		<path id="Layer" class="s12" d="m3005.7 1933.7h43.6v142c0 0-2.2 41.1 41.7 40.2 37.1-0.7 35.9-41.4 35.9-41.4l-0.2-140.8h43.6l0.1 144c0 0 2.2 75-79.7 76.7-90.5 1.9-84.9-82.1-84.9-82.1z"/>
		<path id="Layer" class="s10" d=""/>
		<path id="Layer" class="s10" d=""/>
		<path id="Layer" class="s10" d=""/>
		<path id="Layer" fill-rule="evenodd" class="s12" d="m3421.7 1984.4c13.6 24.3 21.9 69.8 1.8 109.1-27.1 53.2-90.6 53.8-90.6 53.8l-82.2 0.9v-214.5l78.3-0.3c0 0 64.3 0.6 92.7 51zm-127.1-11.2v135.3l38.6-0.1c0 0 37.3-0.4 52-34.4 10.7-24.7 6.6-52.4-0.7-67.7-16.2-33.5-52.8-33.5-52.8-33.5z"/>
		<path id="Layer" fill-rule="evenodd" class="s12" d="m3567.7 2358.4c13.7 24.3 21.9 69.8 1.9 109.1-27.2 53.2-90.7 53.9-90.7 53.9l-82.2 0.9v-214.5l78.4-0.4c0 0 64.2 0.6 92.6 51zm-127.1-11.1v135.2l38.6-0.1c0 0 37.3-0.4 52-34.4 10.7-24.7 6.6-52.4-0.7-67.6-16.2-33.6-52.8-33.6-52.8-33.6z"/>
		<path id="Layer" class="s12" d="m2590.7 2307.7v214.6h128.6v-38.6h-85v-176z"/>
		<path id="Layer" class="s12" d="m2829.7 2307.7v214.5l135.7 0.1-0.1-37.6h-94v-58.4h88v-36.6h-88v-45.4h94v-36.6z"/>
		<path id="Layer" class="s12" d="m3504.7 1933.7v214.6l41.6-37.5v-58.4l88-0.1v-36.5h-88v-45.5h94v-36.6z"/>
		<path id="Layer" class="s12" d="m3699.7 2307.8v214.5l135.7 0.1-0.1-37.6h-94v-58.4h88v-36.6h-88v-45.4l94-0.1v-36.5z"/>
		<path id="Layer" class="s10" d=""/>
		<path id="Layer" fill-rule="evenodd" class="s12" d="m3287.4 2522.2l-48.6 0.1-23-49h-73.6l-22.9 49h-48.8l108.8-227.1zm-135.1-83.5h53.2l-26.3-61.9z"/>
		<path id="Layer" class="s10" d=""/>
		<path id="Layer" fill-rule="evenodd" class="s12" d="m4115.3 2374.9c1.7 49.5-45.6 64.2-45.6 64.2l58.9 83.2h-51.7l-50.1-78.1-19.5 0.1v77.9l-43.6 0.1v-214.6l78.4-0.1c0 0 70.8 0.3 73.2 67.3zm-108.6-31.1v66.6l32.2-0.1c0 0 32.8-1.3 32.8-32.5 0-34.3-33.2-34.1-33.2-34.1z"/>
		<path id="Layer" class="s12" d="m3779.7 2671.3v225h41.6v-134l153 143.4v-224h-41.6v133.9z"/>
		<path id="Layer" class="s12" d="m3087.8 2671.3l-0.1 128.8 41.6 7.2v-45l62.3 58.3 90.7 12.1v-151h-41.6l0.1 133.9z"/>
		<path id="Layer" class="s12" d="m4593.7 2671.3v225h41.6v-134l153 143.4v-224h-41.6v133.9z"/>
		<path id="Layer" class="s12" d="m4219.7 2681.7v214.6h43.6v-214.6z"/>
		<path id="Layer" class="s10" d=""/>
		<path id="Layer" fill-rule="evenodd" class="s12" d="m4542.2 2783.5c3.5 56.5-39.3 114.6-105.3 117.8-57.4 2.9-120-29.5-121.3-112.8-1.1-66.8 53.3-111.4 109.8-110.9 56.5 0.4 112.2 31.7 116.8 105.9zm-181 4.7c0.8 53.2 38.1 73.8 72.4 72 39.3-2.1 64.8-39.1 62.7-75.2-2.7-47.3-35.9-67.3-69.6-67.6-33.7-0.3-66.1 28.1-65.5 70.8z"/>
		<path id="Layer" fill-rule="evenodd" class="s12" d="m3036 2783.2q0.2 3.6 0.2 7.2c0 2.5-1.3 5.8-1.3 5.8l-220.7-39.9c0 0 0.4-4.2 0.7-5.2 15.2-45.7 59.1-74.2 104.3-73.8 56.5 0.4 112.2 31.7 116.8 105.9zm-175.6-24.6c-1.9 4.6 33.4 4.1 68.2 13.9 27.7 7.7 54.1 11.4 54.1 11.4 0 0 7.6 2.8 7.5 0.8-2.8-47.4-36-67.3-69.7-67.6-25.2-0.2-49.7 15.6-60.1 41.5z"/>
		<path id="Layer" class="s12" d="m3582.7 2681.7v205.1l18.1 1.3 17.9 8.2h99.7l-0.1-37.5h-94v-58.4l88-0.1v-36.5l-88-0.1v-45.4h94v-36.6z"/>
		<path id="Layer" class="s12" d="m3324.5 2681.7h50.7l58.2 141.1 57.4-141.1h50.7l-87.2 183-47.2-11.2z"/>
		<path id="Layer" class="s12" d=""/>
		<path id="Layer" class="s12" d=""/>
		<path id="Layer" class="s12" d="m2760.3 2744v-45.1c0 0-35-27.8-84.5-20.7-51.4 7.3-68.9 35.2-68.9 35.2l57.4 11.7c0 0 14.2-8.8 45-5.5 22.4 2.4 51 24.4 51 24.4z"/>
		<path id="Layer" class="s12" d=""/>
		<path id="Layer" class="s12" d=""/>
		<path id="Layer" class="s12" d="m2579.7 2770.1c0 0-14 76.6 48.8 112.3 76.2 43.3 127.5-2.2 127.5-2.2l-36.4-24.8c0 0-35.5 12.8-65.3-8.6-30.5-21.9-27.1-47.9-27.1-47.9z"/>
		<path id="Layer" class="s10" d=""/>
		<path id="Layer" class="s12" d="m3719.7 1923.3v68.6l46.3-25.5z"/>
	</g>
	<g id="Layer-20">
		<path id="Layer" class="s11" d="m3578.6 2105.3l90.7-0.1 0.1-37.4-10.5-0.1z"/>
		<path id="Layer" class="s11" d="m3748.8 2011l-0.1 94.3h41.6v-110l18.4-6.8 134.6 126.2v-188.7l-41.6 16.2 0.1 82.4-58.5-55.1z"/>
		<path id="Layer" class="s11" d="m4003.7 1890.7h3.3 156.3v38.6h-58v176h-43.6v-176h-58z"/>
		<path id="Layer" fill-rule="evenodd" class="s9" d="m2946.1 2782.7l44.6 7.2c-0.3 1.2-0.4 2.3-0.5 2.8q-0.6 5-0.5 10.2c0.8 53.2 38.1 73.9 72.3 72.1 33.6-1.8 57.1-29.1 62-59.5 0.1-0.5-3.6-3-3.6-3l-32.7-6.8 72.5 11.8c0 0 9.5 4 9.3 5-8.5 47.3-48.2 90.8-104.1 93.6-57.5 2.8-120-29.5-121.4-112.9q-0.1-8.3 0.9-16.2c0.2-1.5 1.2-4.3 1.2-4.3zm45.3 3c0 0-0.4 2.2-0.7 4.2l97 15.8z"/>
		<path id="Layer" class="s9" d="m3221.7 2836.9v74.4h41.6l-0.1-74.6-22.1-4.4z"/>
		<path id="Layer" class="s9" d="m3356.4 2864.2l59.9 56.5v-55.1l-25.2-7.7z"/>
		<path id="Layer" class="s9" d="m3551.5 2891l16 32.2 13.5-28.1z"/>
		<path id="Layer" class="s9" d="m2781.3 2750.8c0 0-20.6 19.2-22.1 44.7-2 35.7 14.8 50.4 14.8 50.4l-60.4-26.8c0 0-2.9-12.7 0.4-36.7 2.3-17.3 13.4-43.9 13.4-43.9z"/>
		<path id="Layer" class="s9" d="m2869.4 2863.8c11.9-5.8 24.8-19.5 24.8-19.5v48.9c0 0-8.1 5.4-12.3 6.1-9.2 1.6-24.6-12.6-24.6-12.6 0 0-0.4-16.8 12.1-22.9z"/>
	</g>
	<g id="Layer-19">
		<path id="Layer" class="s14" d="m3591.6 2121.3l90.7-0.1v-37.4l-10.4-0.1z"/>
		<path id="Layer" class="s10" d="m3761.7 2041.1v80.2h41.6v-99.7z"/>
		<path id="Layer" class="s14" d="m3761.7 2027v94.3h41.6v-109.9l18.4-6.9 134.6 126.2v-188.7l-41.6 16.2 0.1 82.4-58.5-55.1z"/>
		<path id="Layer" class="s14" d="m4016.7 1906.7h3.3 156.3v38.6h-58v176h-43.6v-176h-58z"/>
		<path id="Layer" fill-rule="evenodd" class="s14" d="m2925.1 2768.6l44.9 7.3c-0.3 0.9-0.7 2-0.8 2.8q-0.6 4.9-0.5 10.2c0.8 53.2 38.1 73.8 72.4 72 33.5-1.7 57-29 61.9-59.4 0.1-0.6-3.6-3-3.6-3l-70-12.9 109.8 17.9c0 0 9.1 5.3 8.9 6.4-8.5 47.2-47.8 89.4-103.7 92.2-57.5 2.8-120-29.6-121.3-112.9q-0.2-8.3 0.8-16.2c0.2-1.6 1.2-4.4 1.2-4.4zm45.3 6.2c0 0-0.2 0.5-0.4 1.1l59.4 9.7z"/>
		<path id="Layer" class="s14" d="m3200.7 2822.9v74.4h41.6l-0.1-67.8z"/>
		<path id="Layer" class="s14" d="m3335.4 2850.1l59.9 56.6v-45.2z"/>
		<path id="Layer" class="s15" d=""/>
		<path id="Layer" class="s14" d="m3535.1 2887l11.4 22.2 9.6-20z"/>
		<path id="Layer" class="s14" d="m2754.1 2744.9c0 0-13.9 13.8-15.4 39.2-2.1 35.8 14.3 47.7 14.3 47.7l-60.4-26.7c0 0-2.8-12.7 0.4-36.7 2.3-17.3 12.5-34.5 12.5-34.5z"/>
		<path id="Layer" class="s14" d="m2795.2 2856.4c0 0 17.1 8.2 45.6-2.6 18.1-6.8 32.4-23.5 32.4-23.5l0.1 48.8c0 0-11.4 9.1-16.1 9.7-8.5 1-62-32.4-62-32.4z"/>
	</g>
	<g id="Layer-18">
		<path id="Layer" class="s9" d=""/>
		<path id="Layer" class="s16" d="m2558.3 2746.4c-0.5 1.1-0.1 2.8 0.8 3.6 1.9 1.8 4.7 2.2 6.9 3.4 5.1 2.8 10 5.9 15.2 8.7 3.3 1.7 7 2.7 10.3 4.5 6.4 3.5 11.6 8.3 17.8 12.1 6.7 4.1 12.6 6.8 18.8 11.9 12.6 10.5 26.1 21 40.5 28.9 3.9 2.2 8.4 3.4 12.1 5.9 5.2 3.4 6.4 5.3 11.5 9.2 7.6 5.8 15.8 11.3 23.8 16.7 4.8 3.3 10.2 5.5 15.1 8.6 5.3 3.4 10.2 7.4 15.5 10.8 6.3 4.2 13.4 7.2 19.8 11.3 27.5 17.6 55.1 35.2 83 52.2 6.2 3.8 11.9 7.9 17.7 12.1 5 3.5 10.9 5.5 16.3 8.5 12.7 7.1 24.6 15.9 37 23.5 10 6 20.8 10.8 30.8 16.8 19.5 11.5 39.5 22.2 58.5 34.5 19.8 12.7 39.7 25.5 60 37.5 8.4 5 15.7 11.8 23.8 17.2 7.6 4.9 16.5 9.1 24.5 13.3 4.4 2.4 9.4 3.5 13.7 6.2 12.7 7.8 24.8 16.3 37.2 24.5 7.9 5.2 15.3 10.7 24.9 12.8 5 1 11.9 0.5 13.8-5.2 1.8-5.1-1.5-11.8-2.8-16.8-0.7-2.5-1.5-6.8-1.3-9.5 0.2-4 2.6-8.1 2.6-12.2 0-3.7-1-7.8-1.6-11.6-0.5-3.6 0.5-6.9-2.4-9.9-2.7-2.7-6.3-3.6-8.9-6.3-8.9-9-21.4-14.8-32.8-19.7-7.8-3.3-14.9-8.5-22.6-12-6.1-2.7-12.6-4.5-18.7-7.1-6.9-3-12.7-7.4-19.3-10.8-4.9-2.6-10.4-5.1-15.1-8.2-12.2-8.1-24.3-16.6-37.1-24-8-4.6-16.7-8.3-24.9-12.7-6.5-3.5-12.4-8.4-19.3-11.4-13.1-5.6-26.2-10.8-38.9-17.3-13.9-7-27-15.5-40.8-22.9-11.4-6.1-24.3-8.9-35.9-15-8.8-4.7-16.9-10.6-25.3-15.9-5.3-3.3-11.2-6-16.4-9.6-2.9-2-5.5-5-8.9-6.3-16.4-6.6-33.9-11-49.1-20.8-3.7-2.4-7.3-4-11-6-11.1-5.8-20.9-13.8-32.2-19.3-3.1-1.5-6.6-2.4-9.7-4-3.6-1.9-7.2-4.7-11.1-6-1.9-0.7-3.9-0.1-6-0.8-3.7-1.3-6.5-3.3-9.8-5.1-2.8-1.6-7-3-9.3-5.2-2.3-2.2-0.3-1.7-2.6-2.9-1.5-0.8-2.8-0.4-4.3-0.5-2.9-0.2-6.9-2.7-9.2-4.1-3.1-1.9-6.2-5.2-9.1-7.4-1.8-1.3-4.3-1.3-6.2-2.4-3.9-2.1-8.2-3.7-12.1-5.8-5.2-2.9-9.8-7-14.8-9.8-4.4-2.5-9.8-2.7-14.1-5.1-2.9-1.6-6.3-2-9.1-3.6-6.9-3.8-13.9-6.4-21.6-8.4-5.2-1.3-8.8-4.7-12.9-7.9-4-3-8.5-4.1-13.2-5.7-4.3-1.5-9.1-4.5-11.5 0.5z"/>
		<path id="Layer" class="s16" d="m3218.8 3152c0.1 0.7 0.1 2.2 1.4 1.9 3.8-0.7 7.4-2.3 11.1-3.3 4.2-1.2 8.4-2.3 12.7-3.3 15.4-3.6 31.1-5.1 46.5-8.6 5.4-1.3 10.8-2.9 16.2-4.3 35-8.5 70.2-16.5 105.6-23.1 9.4-1.7 18.8-3 28.2-4.8 14.3-2.9 28.5-6.7 42.9-9.4 11.6-2.1 23.4-3.4 35-5.3 15.1-2.4 30.1-5.5 45.2-8 30.5-5 61.1-9.2 91.4-15.7 17.8-3.9 34.6-11.1 52.2-15.7 13.1-3.3 26.4-5.8 39.7-8.2 0.8-0.1 2.1 0.6 2.8 0.6 4.4-0.1 9.2-0.3 13.5-0.7 8.2-0.7 16.2-3.6 23.8-6.5 11.4-4.5 27.2-2 27.2-18.6 0-1.9-0.8-3.7-1-5.6-0.3-5.2 1.5-10.4 2.1-15.5 0.8-5.6-0.7-11.5-1.1-17.1-0.3-5 0.4-9.8-0.1-14.7-0.2-2.6-0.2-13.6-3.1-15-2.5-1.3-7.2 1.5-9.6 2.4-3.9 1.4-8 0.7-12 0.9-3.3 0.2-6.2 1.5-9.4 2.2-4.7 0.8-9.8-0.1-14.4 1.2-8.2 2.1-16 5.1-24.4 6.4-5.5 0.9-10.8-0.2-16.2 1.4-3.7 1.1-6.7 4.5-10.6 5.3-2.8 0.6-6.2 0.4-9.1 0.8-4.6 0.6-9.1 3.3-13.8 3.6-4.2 0.3-6.4-1.5-10.9-0.6-3.1 0.6-6.1 2.5-9.2 3.1-7.7 1.4-15.5 2.7-23.2 4.2-7.8 1.5-15.7 0.5-23.6 2.6-12.3 3.4-24.2 8-36.7 10.8-20.5 4.7-41.7 4.4-62 9.8-13 3.5-25.5 8.3-38.6 11.1-8.5 1.8-17.2 2.6-25.7 4.3-6.5 1.3-12.9 3.3-19.5 4.2-3.2 0.4-6.7 0.5-9.9 1.3-3.4 0.8-6.4 2-9.8 2.7-6.3 1.1-12.7 1.6-18.9 2.9-7.3 1.5-14.6 4.2-21.9 5.2-6.9 0.9-13.2 2.5-19.9 4.2-3.3 0.9-6.7 1.1-9.9 1.8-7.2 1.6-14.6 3.8-21.6 5.8-4.6 1.4-9 3.5-13.7 4.6-11.2 2.5-22.6 4.1-34 5.6-1.7 0.3-3.1 1.3-4.8 1.6-8.1 1.5-15.5 4.8-23.7 5.9-2.9 0.4-6.8-0.6-9.6 0.3-2.2 0.8-4.2 2.5-6.5 3.2-1.3 0.3-2.9 0.1-4.3 0.3-3.2 0.4-5.5 1.4-8.8 1.4-2 0-9.4-0.2-9.8 2.2"/>
		<path id="Layer" class="s17" d="m3366.4 2220.7c0 0.3-0.1 1.1 0.1 0.9 3.4-1.5 6.4-3.7 9.6-5.5 6.8-3.7 13.6-7.6 20.5-11 13.3-6.3 28.1-11 41.8-16.3 13.9-5.3 28-10.1 41.7-15.9 8.4-3.5 16.8-7.8 24.9-11.8 3.1-1.5 6.1-3.8 9.2-5.2 15.6-7.2 31.3-14.4 46.8-21.9 22.2-10.8 44.8-20.9 66.2-33.3 6.2-3.6 12-7.9 18.2-11.7 10.8-6.8 22.1-12.7 33-19.4 40-24.2 83-41.9 126.1-59.6 29-11.9 57.6-24.5 86.4-36.4 7.9-3.3 14.1-8.3 21.1-12.9 6.6-4.4 13.9-8 21-11.3 17.8-8.2 35.9-16 53-25.5 11.1-6.2 21.4-13.3 32-20.1 4.1-2.7 8.6-4.9 12.7-7.5 4.7-3 9.1-6.2 14.3-8.3 2.1-0.8 4.3-1 6.4-1.8 4.3-1.8 8-4.8 12.1-6.9 7.6-3.7 15.2-7.3 22.9-10.7 6.4-2.7 24.2-6 25.5-13.6 1.2-7.1-6.5-15.3-11.2-19.8-8.7-8.2-21.3-7.5-32.2-8.4-2.3-0.2-4.5-1-6.8-1.2-8.7-0.9-17.1 0-25.8 0.6-3.6 0.2-9 0.6-12.3 2.1-4.3 2-8.2 6.5-12.3 8.9-5.8 3.3-11.9 6.1-18.1 8.4-8.6 3.2-16.9 5.9-24.9 10.5-5.1 2.9-9.3 6.9-14.3 9.9-13 7.7-26.7 14.6-39.2 23-10.5 7-20.2 15.2-30.6 22.2-6.3 4.2-13.7 6.7-20.3 10.2-9.2 5-18.6 10.4-27.4 16.1-8.8 5.5-19.7 9-29.4 12.5-4.1 1.5-8.7 2.2-12.3 4.7-2.8 1.9-4.7 5.2-7.6 7.3-8.5 6.1-19 9.8-28 15-7.4 4.2-14.4 8.9-21.9 12.7-7.6 3.9-15.9 6.4-23 11.1-2.7 1.7-4.9 4.1-7.6 5.7-2.3 1.3-4.9 2-7.3 3.2-6.6 3.6-12.3 9-18.2 13.4-9.1 6.7-19.3 12.3-28.7 18.6-4.1 2.7-7.5 6.5-11.3 9.6-5.9 4.9-12.5 8.6-18.6 13.2-2.5 1.9-4.6 4.2-7.2 5.8-5.1 3.3-11 4.6-15.5 8.3-2.4 2-8.1 0-10.6 1.9-0.6 0.4-0.4 1.4-1 1.8-4 2.6-8.7 3.6-13 5.7-5.1 2.4-9.7 6.1-15 8-9.3 3.4-18.4 8.1-26.4 13.9-7.2 5.2-14.6 10.1-22.3 14.2-1.6 0.8-2.8 2.5-4.4 3.3-0.5 0.3-0.5 3.4-0.9 4.4-0.5 1.7-3.5 7.4-4.9 8.1-1.5 0.8-5.9-0.9-7.8-0.7-6.1 0.8-13.3 3.8-19 6-1.7 0.7-3.4 2.5-4.8 3.6-5.7 4.2-11.2 8.6-17.2 12.4-4.9 3.2-10.1 5.6-15.4 8-2.6 1.2-4.8 3.3-7.6 4.4-4.8 1.9-10.8 2.6-15.3 5-1.7 0.9-2 3.2-3.5 4.4-4.6 3.9-9 4.9-14.6 6.9-2.5 0.9-4.5 3.5-6.6 5.2-1.8 1.4-4.3 3.2-5 5.6"/>
		<path id="Layer" class="s17" d="m3494.3 2140.4c0.7 1.3 2.9 1 4 0.9 2-0.1 4.6-0.4 5.8-2.3 1.4-2.1-0.8-5-3.1-4.7"/>
		<path id="Layer" class="s12" d="m3233.2 2290.2l782.4-486.6 138.9 24.8 822.2 278.4-1743.6 184.1 27.7-10.4 1583.3-188.7-692-234.4-891.3 423.2 107.1-64.2 738.3-366.4-84.6-15.2-653.7 381.6-107.1 64.1z"/>
		<path id="Layer" class="s10" d=""/>
		<path id="Layer" class="s10" d=""/>
		<path id="Layer" class="s10" d=""/>
		<path id="Layer" class="s10" d=""/>
		<path id="Layer" fill-rule="evenodd" class="s12" d="m3831.8 2920.8v122.6l-625.1 131.1-767.7-493.2 5 1.8-5.1-2.2zm-617.5 135l580.6-119-1307.4-238.5zm-18 80.8l-0.1-61.2-642.4-332.4zm27.7-58l-0.5 64.5 581.5-122.3 0.4-64.9z"/>
	</g>
</svg>